<svg  xmlns="http://www.w3.org/2000/svg">
<symbol id='cart'  viewBox="0 0 38 33" fill="none" >
  <path d="M15.7559 27.5C17.2915 27.5 18.5371 28.7312 18.5371 30.25C18.5371 31.7688 17.2915 33 15.7559 33C14.2203 32.9999 12.9756 31.7687 12.9756 30.25C12.9756 28.7313 14.2203 27.5001 15.7559 27.5ZM28.7314 27.5C30.2671 27.5 31.5127 28.7312 31.5127 30.25C31.5127 31.7688 30.2671 33 28.7314 33C27.1959 32.9999 25.9512 31.7687 25.9512 30.25C25.9512 28.7313 27.1959 27.5001 28.7314 27.5ZM4.32422 0C5.82561 0 7.16769 0.883696 7.74609 2.25488L9.88574 7.33301H35.2197C35.8277 7.33301 36.3975 7.6281 36.7441 8.12305C37.0907 8.61607 37.17 9.24698 36.957 9.81152L31.3955 24.4785C31.123 25.1916 30.432 25.6669 29.6592 25.667H14.8291C14.0804 25.6669 13.4054 25.221 13.1182 24.5391L4.32422 3.66699H0V0H4.32422ZM16.0654 22H28.374L32.5449 11H11.4316L16.0654 22Z" fill="currentColor" />
</symbol>


<symbol id='search'  viewBox="0 0 29 29" fill="none" >
  <path d="M28.1789 24.7026L22.6157 19.1393C22.3646 18.8882 20.9293 17.5996 20.5487 17.2191L20.7575 18.7487C22.2976 16.779 23.2127 14.3015 23.2127 11.6064C23.2127 5.19496 18.0178 0 11.6064 0C5.19496 0 0 5.19496 0 11.6064C0 18.0178 5.19496 23.2127 11.6064 23.2127C14.3015 23.2127 16.779 22.2976 18.7487 20.7575L17.2191 20.6439C17.5045 20.9293 18.8882 22.3646 19.1393 22.6157L24.7026 28.1789C25.2271 28.7034 26.0753 28.7034 26.5942 28.1789L28.1733 26.5998C28.6979 26.0753 28.6979 25.2271 28.1789 24.7026ZM11.6064 18.7487C7.66132 18.7487 4.46399 15.557 4.46399 11.6064C4.46399 7.66132 7.65574 4.46399 11.6064 4.46399C15.5514 4.46399 18.7487 7.65574 18.7487 11.6064C18.7487 15.5514 15.557 18.7487 11.6064 18.7487Z" fill="currentColor" />
</symbol>


<symbol  id="burger" viewBox="0 0 25 22" fill="none" >
  <path d="M0 12.4982H24.9965V8.92732H0V12.4982ZM0 21.4256H24.9965V17.8546H0V21.4256ZM0 0V3.57093H24.9965V0H0Z" fill="currentColor" />
</symbol>


<symbol id='cross'  viewBox="0 0 24 24" fill="none" >
  <path d="M18 6L6 18M6 6L18 18"  stroke-width="2" stroke-linecap="round" stroke-linejoin="round" stroke="currentColor" />
</symbol>



</svg>