<?xml version="1.0" standalone="no"?>
<!DOCTYPE svg PUBLIC "-//W3C//DTD SVG 20010904//EN"
 "http://www.w3.org/TR/2001/REC-SVG-20010904/DTD/svg10.dtd">
<svg version="1.0" xmlns="http://www.w3.org/2000/svg"
 width="512.000000pt" height="512.000000pt" viewBox="0 0 512.000000 512.000000"
 preserveAspectRatio="xMidYMid meet">

<g transform="translate(0.000000,512.000000) scale(0.100000,-0.100000)"
fill="#000000" stroke="none">
<path d="M3455 4801 c-70 -18 -127 -60 -256 -188 l-137 -135 -46 36 c-53 40
-157 76 -220 76 -110 0 -231 -54 -321 -145 -142 -141 -181 -322 -105 -484 27
-58 63 -98 298 -333 l267 -268 -588 -587 -587 -588 -268 267 c-240 240 -275
270 -337 300 -64 30 -78 33 -160 32 -108 0 -174 -23 -265 -90 -201 -147 -257
-415 -124 -590 l36 -46 -135 -137 c-166 -168 -191 -210 -191 -326 -1 -125 22
-165 204 -349 l150 -152 -115 -114 c-141 -141 -169 -188 -169 -285 0 -60 4
-79 34 -133 61 -114 157 -175 275 -176 97 0 135 22 280 165 l121 118 144 -145
c178 -178 230 -209 350 -209 118 0 163 27 330 191 l138 135 47 -35 c174 -133
442 -76 589 124 67 91 90 157 90 265 1 82 -2 96 -32 160 -30 62 -60 97 -300
337 l-267 268 587 587 587 587 268 -265 c292 -289 317 -307 446 -329 139 -25
271 24 380 139 109 116 152 239 128 370 -13 70 -49 152 -84 189 l-21 22 136
138 c170 171 192 210 192 332 1 123 -25 167 -209 350 l-144 144 120 122 c139
142 163 184 163 284 0 80 -25 140 -84 204 -61 66 -137 100 -220 100 -101 -1
-143 -25 -283 -163 l-122 -120 -150 148 c-173 170 -219 200 -323 206 -37 2
-80 1 -97 -4z m140 -170 c27 -13 203 -182 541 -522 442 -444 502 -508 508
-541 15 -82 3 -103 -143 -251 l-135 -138 -593 593 -593 593 123 123 c158 161
205 184 292 143z m872 -62 c40 -15 91 -67 104 -106 18 -56 -1 -89 -124 -211
l-112 -112 -98 98 -97 97 113 111 c141 141 152 147 214 123z m-1573 -168 c60
-30 1484 -1455 1511 -1513 26 -57 26 -160 1 -208 -60 -113 -160 -183 -261
-184 -119 -1 -75 -39 -873 758 -430 428 -742 748 -755 771 -29 53 -30 164 -3
215 85 158 245 226 380 161z m256 -1256 l95 -95 -588 -588 -587 -587 -97 98
-98 97 585 585 c322 322 587 585 590 585 3 0 48 -43 100 -95z m-2054 -543 c49
-26 1485 -1463 1510 -1512 26 -49 25 -162 0 -210 -84 -155 -242 -224 -376
-163 -61 28 -1472 1439 -1510 1509 -34 66 -34 159 3 230 34 68 121 140 196
165 41 13 134 3 177 -19z m712 -1979 c-105 -103 -142 -134 -175 -144 -92 -27
-76 -40 -640 524 -450 451 -512 517 -518 550 -15 80 -3 101 143 249 l136 139
593 -593 593 -593 -132 -132z m-940 50 c-122 -123 -155 -142 -211 -124 -40 13
-91 64 -107 105 -21 55 -4 84 118 209 l116 117 98 -97 98 -98 -112 -112z"/>
</g>
</svg>
