<svg  xmlns="http://www.w3.org/2000/svg">
  <symbol id="arrow"  viewBox="0 0 57 57" fill="none" >
  <path d="M1.25 28.25H55.25 M28.25 1.25L55.25 28.25L28.25 55.25" stroke="currentColor" stroke-width="2.5" stroke-linecap="round" stroke-linejoin="round" />
</symbol>

<symbol  id="arrow-sm" viewBox="0 0 21 21" fill="none">
  <path d="M0.999958 10.2829H19.565M10.2825 1.00041L19.565 10.2829L10.2825 19.5654" stroke="currentColor" stroke-width="2" stroke-linecap="round" stroke-linejoin="round"/>
</symbol>


<symbol id="product-decor"  viewBox="0 0 767 767" fill="none" >
  <g opacity="0.3">
    <path d="M4.17114 0C1.86899 0 0 1.86899 0 4.17114C0 6.47328 1.86899 8.34227 4.17114 8.34227C6.47328 8.34227 8.34227 6.47328 8.34227 4.17114C8.34227 1.86899 6.47328 0 4.17114 0ZM4.17114 75.8666C1.86899 75.8666 0 77.7356 0 80.0377C0 82.3399 1.86899 84.2089 4.17114 84.2089C6.47328 84.2089 8.34227 82.3399 8.34227 80.0377C8.34227 77.7356 6.47328 75.8666 4.17114 75.8666ZM4.17114 151.733C1.86899 151.733 0 153.602 0 155.904C0 158.206 1.86899 160.075 4.17114 160.075C6.47328 160.075 8.34227 158.206 8.34227 155.904C8.34227 153.602 6.47328 151.733 4.17114 151.733ZM80.0377 8.34227C82.3414 8.34227 84.2089 6.47479 84.2089 4.17114C84.2089 1.86748 82.3414 0 80.0377 0C77.7341 0 75.8666 1.86748 75.8666 4.17114C75.8666 6.47479 77.7341 8.34227 80.0377 8.34227ZM80.0377 75.8666C77.7356 75.8666 75.8666 77.7356 75.8666 80.0377C75.8666 82.3399 77.7356 84.2089 80.0377 84.2089C82.3399 84.2089 84.2089 82.3399 84.2089 80.0377C84.2089 77.7356 82.3399 75.8666 80.0377 75.8666ZM80.0377 151.733C77.7356 151.733 75.8666 153.602 75.8666 155.904C75.8666 158.206 77.7356 160.075 80.0377 160.075C82.3399 160.075 84.2089 158.206 84.2089 155.904C84.2089 153.602 82.3399 151.733 80.0377 151.733ZM155.904 8.34227C158.208 8.34227 160.075 6.47479 160.075 4.17114C160.075 1.86748 158.208 0 155.904 0C153.601 0 151.733 1.86748 151.733 4.17114C151.733 6.47479 153.601 8.34227 155.904 8.34227ZM231.771 8.34227C234.075 8.34227 235.942 6.47479 235.942 4.17114C235.942 1.86748 234.075 0 231.771 0C229.467 0 227.6 1.86748 227.6 4.17114C227.6 6.47479 229.467 8.34227 231.771 8.34227ZM155.904 75.8666C153.602 75.8666 151.733 77.7356 151.733 80.0377C151.733 82.3399 153.602 84.2089 155.904 84.2089C158.206 84.2089 160.075 82.3399 160.075 80.0377C160.075 77.7356 158.206 75.8666 155.904 75.8666ZM231.771 75.8666C229.469 75.8666 227.6 77.7356 227.6 80.0377C227.6 82.3399 229.469 84.2089 231.771 84.2089C234.073 84.2089 235.942 82.3399 235.942 80.0377C235.942 77.7356 234.073 75.8666 231.771 75.8666ZM155.904 151.733C153.602 151.733 151.733 153.602 151.733 155.904C151.733 158.206 153.602 160.075 155.904 160.075C158.206 160.075 160.075 158.206 160.075 155.904C160.075 153.602 158.206 151.733 155.904 151.733ZM231.771 151.733C229.469 151.733 227.6 153.602 227.6 155.904C227.6 158.206 229.469 160.075 231.771 160.075C234.073 160.075 235.942 158.206 235.942 155.904C235.942 153.602 234.073 151.733 231.771 151.733ZM307.637 0C305.335 0 303.466 1.86899 303.466 4.17114C303.466 6.47328 305.335 8.34227 307.637 8.34227C309.94 8.34227 311.809 6.47328 311.809 4.17114C311.809 1.86899 309.94 0 307.637 0ZM307.637 75.8666C305.335 75.8666 303.466 77.7356 303.466 80.0377C303.466 82.3399 305.335 84.2089 307.637 84.2089C309.94 84.2089 311.809 82.3399 311.809 80.0377C311.809 77.7356 309.94 75.8666 307.637 75.8666ZM307.637 151.733C305.335 151.733 303.466 153.602 303.466 155.904C303.466 158.206 305.335 160.075 307.637 160.075C309.94 160.075 311.809 158.206 311.809 155.904C311.809 153.602 309.94 151.733 307.637 151.733ZM383.504 8.34227C385.808 8.34227 387.675 6.47479 387.675 4.17114C387.675 1.86748 385.808 0 383.504 0C381.2 0 379.333 1.86748 379.333 4.17114C379.333 6.47479 381.2 8.34227 383.504 8.34227ZM459.363 8.34227C461.666 8.34227 463.534 6.47479 463.534 4.17114C463.534 1.86748 461.666 0 459.363 0C457.059 0 455.191 1.86748 455.191 4.17114C455.191 6.47479 457.059 8.34227 459.363 8.34227ZM383.504 75.8666C381.202 75.8666 379.333 77.7356 379.333 80.0377C379.333 82.3399 381.202 84.2089 383.504 84.2089C385.806 84.2089 387.675 82.3399 387.675 80.0377C387.675 77.7356 385.806 75.8666 383.504 75.8666ZM459.363 75.8666C457.06 75.8666 455.191 77.7356 455.191 80.0377C455.191 82.3399 457.06 84.2089 459.363 84.2089C461.665 84.2089 463.534 82.3399 463.534 80.0377C463.534 77.7356 461.665 75.8666 459.363 75.8666ZM383.504 151.733C381.202 151.733 379.333 153.602 379.333 155.904C379.333 158.206 381.202 160.075 383.504 160.075C385.806 160.075 387.675 158.206 387.675 155.904C387.675 153.602 385.806 151.733 383.504 151.733ZM459.363 151.733C457.06 151.733 455.191 153.602 455.191 155.904C455.191 158.206 457.06 160.075 459.363 160.075C461.665 160.075 463.534 158.206 463.534 155.904C463.534 153.602 461.665 151.733 459.363 151.733ZM535.229 8.34227C537.533 8.34227 539.4 6.47479 539.4 4.17114C539.4 1.86748 537.533 0 535.229 0C532.925 0 531.058 1.86748 531.058 4.17114C531.058 6.47479 532.925 8.34227 535.229 8.34227ZM535.229 75.8666C532.927 75.8666 531.058 77.7356 531.058 80.0377C531.058 82.3399 532.927 84.2089 535.229 84.2089C537.531 84.2089 539.4 82.3399 539.4 80.0377C539.4 77.7356 537.531 75.8666 535.229 75.8666ZM535.229 151.733C532.927 151.733 531.058 153.602 531.058 155.904C531.058 158.206 532.927 160.075 535.229 160.075C537.531 160.075 539.4 158.206 539.4 155.904C539.4 153.602 537.531 151.733 535.229 151.733ZM611.096 8.34227C613.399 8.34227 615.267 6.47479 615.267 4.17114C615.267 1.86748 613.399 0 611.096 0C608.792 0 606.925 1.86748 606.925 4.17114C606.925 6.47479 608.792 8.34227 611.096 8.34227ZM686.962 8.34227C689.266 8.34227 691.133 6.47479 691.133 4.17114C691.133 1.86748 689.266 0 686.962 0C684.659 0 682.791 1.86748 682.791 4.17114C682.791 6.47479 684.659 8.34227 686.962 8.34227ZM611.096 75.8666C608.794 75.8666 606.925 77.7356 606.925 80.0377C606.925 82.3399 608.794 84.2089 611.096 84.2089C613.398 84.2089 615.267 82.3399 615.267 80.0377C615.267 77.7356 613.398 75.8666 611.096 75.8666ZM686.962 75.8666C684.66 75.8666 682.791 77.7356 682.791 80.0377C682.791 82.3399 684.66 84.2089 686.962 84.2089C689.264 84.2089 691.133 82.3399 691.133 80.0377C691.133 77.7356 689.264 75.8666 686.962 75.8666ZM611.096 151.733C608.794 151.733 606.925 153.602 606.925 155.904C606.925 158.206 608.794 160.075 611.096 160.075C613.398 160.075 615.267 158.206 615.267 155.904C615.267 153.602 613.398 151.733 611.096 151.733ZM686.962 151.733C684.66 151.733 682.791 153.602 682.791 155.904C682.791 158.206 684.66 160.075 686.962 160.075C689.264 160.075 691.133 158.206 691.133 155.904C691.133 153.602 689.264 151.733 686.962 151.733ZM762.829 8.34227C765.133 8.34227 767 6.47479 767 4.17114C767 1.86748 765.133 0 762.829 0C760.525 0 758.658 1.86748 758.658 4.17114C758.658 6.47479 760.525 8.34227 762.829 8.34227ZM762.829 75.8666C760.527 75.8666 758.658 77.7356 758.658 80.0377C758.658 82.3399 760.527 84.2089 762.829 84.2089C765.131 84.2089 767 82.3399 767 80.0377C767 77.7356 765.131 75.8666 762.829 75.8666ZM762.829 151.733C760.527 151.733 758.658 153.602 758.658 155.904C758.658 158.206 760.527 160.075 762.829 160.075C765.131 160.075 767 158.206 767 155.904C767 153.602 765.131 151.733 762.829 151.733ZM4.17114 227.6C1.86899 227.6 0 229.469 0 231.771C0 234.073 1.86899 235.942 4.17114 235.942C6.47328 235.942 8.34227 234.073 8.34227 231.771C8.34227 229.469 6.47328 227.6 4.17114 227.6ZM4.17114 303.466C1.86899 303.466 0 305.335 0 307.637C0 309.94 1.86899 311.809 4.17114 311.809C6.47328 311.809 8.34227 309.94 8.34227 307.637C8.34227 305.335 6.47328 303.466 4.17114 303.466ZM4.17114 379.333C1.86899 379.333 0 381.202 0 383.504C0 385.806 1.86899 387.675 4.17114 387.675C6.47328 387.675 8.34227 385.806 8.34227 383.504C8.34227 381.202 6.47328 379.333 4.17114 379.333ZM80.0377 227.6C77.7356 227.6 75.8666 229.469 75.8666 231.771C75.8666 234.073 77.7356 235.942 80.0377 235.942C82.3399 235.942 84.2089 234.073 84.2089 231.771C84.2089 229.469 82.3399 227.6 80.0377 227.6ZM80.0377 303.466C77.7356 303.466 75.8666 305.335 75.8666 307.637C75.8666 309.94 77.7356 311.809 80.0377 311.809C82.3399 311.809 84.2089 309.94 84.2089 307.637C84.2089 305.335 82.3399 303.466 80.0377 303.466ZM80.0377 379.333C77.7356 379.333 75.8666 381.202 75.8666 383.504C75.8666 385.806 77.7356 387.675 80.0377 387.675C82.3399 387.675 84.2089 385.806 84.2089 383.504C84.2089 381.202 82.3399 379.333 80.0377 379.333ZM155.904 227.6C153.602 227.6 151.733 229.469 151.733 231.771C151.733 234.073 153.602 235.942 155.904 235.942C158.206 235.942 160.075 234.073 160.075 231.771C160.075 229.469 158.206 227.6 155.904 227.6ZM231.771 227.6C229.469 227.6 227.6 229.469 227.6 231.771C227.6 234.073 229.469 235.942 231.771 235.942C234.073 235.942 235.942 234.073 235.942 231.771C235.942 229.469 234.073 227.6 231.771 227.6ZM155.904 303.466C153.602 303.466 151.733 305.335 151.733 307.637C151.733 309.94 153.602 311.809 155.904 311.809C158.206 311.809 160.075 309.94 160.075 307.637C160.075 305.335 158.206 303.466 155.904 303.466ZM231.771 303.466C229.469 303.466 227.6 305.335 227.6 307.637C227.6 309.94 229.469 311.809 231.771 311.809C234.073 311.809 235.942 309.94 235.942 307.637C235.942 305.335 234.073 303.466 231.771 303.466ZM155.904 379.333C153.602 379.333 151.733 381.202 151.733 383.504C151.733 385.806 153.602 387.675 155.904 387.675C158.206 387.675 160.075 385.806 160.075 383.504C160.075 381.202 158.206 379.333 155.904 379.333ZM231.771 379.333C229.469 379.333 227.6 381.202 227.6 383.504C227.6 385.806 229.469 387.675 231.771 387.675C234.073 387.675 235.942 385.806 235.942 383.504C235.942 381.202 234.073 379.333 231.771 379.333ZM307.637 227.6C305.335 227.6 303.466 229.469 303.466 231.771C303.466 234.073 305.335 235.942 307.637 235.942C309.94 235.942 311.809 234.073 311.809 231.771C311.809 229.469 309.94 227.6 307.637 227.6ZM307.637 303.466C305.335 303.466 303.466 305.335 303.466 307.637C303.466 309.94 305.335 311.809 307.637 311.809C309.94 311.809 311.809 309.94 311.809 307.637C311.809 305.335 309.94 303.466 307.637 303.466ZM307.637 379.333C305.335 379.333 303.466 381.202 303.466 383.504C303.466 385.806 305.335 387.675 307.637 387.675C309.94 387.675 311.809 385.806 311.809 383.504C311.809 381.202 309.94 379.333 307.637 379.333ZM383.504 227.6C381.202 227.6 379.333 229.469 379.333 231.771C379.333 234.073 381.202 235.942 383.504 235.942C385.806 235.942 387.675 234.073 387.675 231.771C387.675 229.469 385.806 227.6 383.504 227.6ZM459.363 227.6C457.06 227.6 455.191 229.469 455.191 231.771C455.191 234.073 457.06 235.942 459.363 235.942C461.665 235.942 463.534 234.073 463.534 231.771C463.534 229.469 461.665 227.6 459.363 227.6ZM383.504 303.466C381.202 303.466 379.333 305.335 379.333 307.637C379.333 309.94 381.202 311.809 383.504 311.809C385.806 311.809 387.675 309.94 387.675 307.637C387.675 305.335 385.806 303.466 383.504 303.466ZM459.363 303.466C457.06 303.466 455.191 305.335 455.191 307.637C455.191 309.94 457.06 311.809 459.363 311.809C461.665 311.809 463.534 309.94 463.534 307.637C463.534 305.335 461.665 303.466 459.363 303.466ZM383.504 379.333C381.202 379.333 379.333 381.202 379.333 383.504C379.333 385.806 381.202 387.675 383.504 387.675C385.806 387.675 387.675 385.806 387.675 383.504C387.675 381.202 385.806 379.333 383.504 379.333ZM459.363 379.333C457.06 379.333 455.191 381.202 455.191 383.504C455.191 385.806 457.06 387.675 459.363 387.675C461.665 387.675 463.534 385.806 463.534 383.504C463.534 381.202 461.665 379.333 459.363 379.333ZM535.229 227.6C532.927 227.6 531.058 229.469 531.058 231.771C531.058 234.073 532.927 235.942 535.229 235.942C537.531 235.942 539.4 234.073 539.4 231.771C539.4 229.469 537.531 227.6 535.229 227.6ZM535.229 303.466C532.927 303.466 531.058 305.335 531.058 307.637C531.058 309.94 532.927 311.809 535.229 311.809C537.531 311.809 539.4 309.94 539.4 307.637C539.4 305.335 537.531 303.466 535.229 303.466ZM535.229 379.333C532.927 379.333 531.058 381.202 531.058 383.504C531.058 385.806 532.927 387.675 535.229 387.675C537.531 387.675 539.4 385.806 539.4 383.504C539.4 381.202 537.531 379.333 535.229 379.333ZM611.096 227.6C608.794 227.6 606.925 229.469 606.925 231.771C606.925 234.073 608.794 235.942 611.096 235.942C613.398 235.942 615.267 234.073 615.267 231.771C615.267 229.469 613.398 227.6 611.096 227.6ZM686.962 227.6C684.66 227.6 682.791 229.469 682.791 231.771C682.791 234.073 684.66 235.942 686.962 235.942C689.264 235.942 691.133 234.073 691.133 231.771C691.133 229.469 689.264 227.6 686.962 227.6ZM611.096 303.466C608.794 303.466 606.925 305.335 606.925 307.637C606.925 309.94 608.794 311.809 611.096 311.809C613.398 311.809 615.267 309.94 615.267 307.637C615.267 305.335 613.398 303.466 611.096 303.466ZM686.962 303.466C684.66 303.466 682.791 305.335 682.791 307.637C682.791 309.94 684.66 311.809 686.962 311.809C689.264 311.809 691.133 309.94 691.133 307.637C691.133 305.335 689.264 303.466 686.962 303.466ZM611.096 379.333C608.794 379.333 606.925 381.202 606.925 383.504C606.925 385.806 608.794 387.675 611.096 387.675C613.398 387.675 615.267 385.806 615.267 383.504C615.267 381.202 613.398 379.333 611.096 379.333ZM686.962 379.333C684.66 379.333 682.791 381.202 682.791 383.504C682.791 385.806 684.66 387.675 686.962 387.675C689.264 387.675 691.133 385.806 691.133 383.504C691.133 381.202 689.264 379.333 686.962 379.333ZM762.829 227.6C760.527 227.6 758.658 229.469 758.658 231.771C758.658 234.073 760.527 235.942 762.829 235.942C765.131 235.942 767 234.073 767 231.771C767 229.469 765.131 227.6 762.829 227.6ZM762.829 303.466C760.527 303.466 758.658 305.335 758.658 307.637C758.658 309.94 760.527 311.809 762.829 311.809C765.131 311.809 767 309.94 767 307.637C767 305.335 765.131 303.466 762.829 303.466ZM762.829 379.333C760.527 379.333 758.658 381.202 758.658 383.504C758.658 385.806 760.527 387.675 762.829 387.675C765.131 387.675 767 385.806 767 383.504C767 381.202 765.131 379.333 762.829 379.333ZM4.17114 455.191C1.86899 455.191 0 457.06 0 459.363C0 461.665 1.86899 463.534 4.17114 463.534C6.47328 463.534 8.34227 461.665 8.34227 459.363C8.34227 457.06 6.47328 455.191 4.17114 455.191ZM4.17114 531.058C1.86899 531.058 0 532.927 0 535.229C0 537.531 1.86899 539.4 4.17114 539.4C6.47328 539.4 8.34227 537.531 8.34227 535.229C8.34227 532.927 6.47328 531.058 4.17114 531.058ZM4.17114 606.925C1.86899 606.925 0 608.794 0 611.096C0 613.398 1.86899 615.267 4.17114 615.267C6.47328 615.267 8.34227 613.398 8.34227 611.096C8.34227 608.794 6.47328 606.925 4.17114 606.925ZM80.0377 455.191C77.7356 455.191 75.8666 457.06 75.8666 459.363C75.8666 461.665 77.7356 463.534 80.0377 463.534C82.3399 463.534 84.2089 461.665 84.2089 459.363C84.2089 457.06 82.3399 455.191 80.0377 455.191ZM80.0377 531.058C77.7356 531.058 75.8666 532.927 75.8666 535.229C75.8666 537.531 77.7356 539.4 80.0377 539.4C82.3399 539.4 84.2089 537.531 84.2089 535.229C84.2089 532.927 82.3399 531.058 80.0377 531.058ZM80.0377 606.925C77.7356 606.925 75.8666 608.794 75.8666 611.096C75.8666 613.398 77.7356 615.267 80.0377 615.267C82.3399 615.267 84.2089 613.398 84.2089 611.096C84.2089 608.794 82.3399 606.925 80.0377 606.925ZM155.904 455.191C153.602 455.191 151.733 457.06 151.733 459.363C151.733 461.665 153.602 463.534 155.904 463.534C158.206 463.534 160.075 461.665 160.075 459.363C160.075 457.06 158.206 455.191 155.904 455.191ZM231.771 455.191C229.469 455.191 227.6 457.06 227.6 459.363C227.6 461.665 229.469 463.534 231.771 463.534C234.073 463.534 235.942 461.665 235.942 459.363C235.942 457.06 234.073 455.191 231.771 455.191ZM155.904 531.058C153.602 531.058 151.733 532.927 151.733 535.229C151.733 537.531 153.602 539.4 155.904 539.4C158.206 539.4 160.075 537.531 160.075 535.229C160.075 532.927 158.206 531.058 155.904 531.058ZM231.771 531.058C229.469 531" />
</symbol>


<symbol id="double-arrow" viewBox="0 0 40 40" fill="none">
  <path 
    d="M30 11.6667L21.6667 20L30 28.3334M18.3333 11.6667L10 20L18.3333 28.3334"
    stroke="currentColor"
    stroke-width="2"
    stroke-linecap="round"
    stroke-linejoin="round"
    
  />
</symbol>

<symbol id="product__slide-label" viewBox="0 0 211 211" fill="none" >
  <path d="M138.662 176.596C178.155 158.052 195.139 111.003 176.595 71.5097C158.052 32.016 111.003 15.0326 71.5092 33.5762C32.0155 52.1198 15.0321 99.1683 33.5757 138.662C52.1193 178.156 99.1678 195.139 138.662 176.596Z M86.8616 88.5704C86.1369 88.9106 85.7741 89.5413 85.7694 90.4731L87.5039 136.302C87.5696 137.191 87.9646 137.475 88.6893 137.135L99.9667 131.84C100.758 131.468 101.121 130.838 101.059 129.937L100.529 115.737L100.526 115.693L99.9631 103.845L99.9335 103.859L99.6095 96.4026L98.9711 82.8755L86.8655 88.5595L86.8616 88.5704Z M123.35 76.5364C123.926 77.7639 124.256 79.3509 124.332 81.3007L124.833 94.4954C124.909 96.4452 124.843 98.0919 124.649 99.4466C124.443 100.797 124.042 101.979 123.435 102.995C122.837 104.007 121.988 104.91 120.902 105.71C119.822 106.505 118.436 107.301 116.735 108.099L102.174 114.936L101.611 103.088L101.265 95.6426L100.707 83.901C100.657 82.8143 101.259 81.8095 102.243 81.3477L115.213 75.2575C119.332 73.3234 122.048 73.745 123.357 76.5329L123.35 76.5364Z M110.569 40.1829L115.402 40.8832C116.439 41.0367 117.19 41.4243 117.653 42.0644C118.116 42.7044 118.279 43.4942 118.138 44.4628C118.001 45.4206 117.603 46.1491 116.959 46.6412C116.315 47.1333 115.473 47.3025 114.457 47.1569L111.282 46.6984L110.741 50.4092L109.124 50.1756L110.565 40.1937L110.569 40.1829ZM114.594 45.7569C115.108 45.8317 115.538 45.729 115.881 45.4597C116.224 45.1904 116.435 44.7753 116.511 44.2253C116.594 43.6719 116.51 43.2239 116.27 42.8854C116.029 42.5469 115.64 42.3327 115.097 42.2535L111.98 41.8038L111.47 45.3106L114.587 45.7603L114.594 45.7569Z M119.165 50.686C118.608 49.5758 118.594 48.2013 119.135 46.5664C119.676 44.9315 120.504 43.83 121.617 43.28C122.728 42.7227 124.051 42.6968 125.581 43.206C127.118 43.7118 128.169 44.5271 128.726 45.6373C129.283 46.7474 129.297 48.1219 128.756 49.7568C128.215 51.3917 127.387 52.4933 126.274 53.0432C125.164 53.6006 123.836 53.619 122.299 53.1133C120.773 52.6115 119.733 51.8001 119.169 50.6934L119.165 50.686ZM127.133 49.3184L127.188 49.148C127.964 46.7624 127.289 45.2108 125.147 44.511C123.019 43.8043 121.551 44.6379 120.747 47.0192L120.691 47.1896C119.906 49.553 120.591 51.0903 122.73 51.8009C124.88 52.5155 126.351 51.6893 127.126 49.3219L127.133 49.3184Z M132.123 45.5676L133.607 46.4412L131.746 53.2806C131.681 53.5276 131.523 54.017 131.279 54.7456L131.34 54.78L132.34 53.6242L137.119 48.5013L139 49.6039L136.901 56.3023C136.817 56.5853 136.645 57.0635 136.398 57.7481L136.459 57.7825C136.97 57.2177 137.319 56.8462 137.51 56.6572L142.537 51.6794L143.896 52.4767L136.345 59.7496L134.579 58.7193L136.661 51.9656C136.784 51.5922 136.953 51.0884 137.188 50.4546L137.127 50.4202C136.663 50.9899 136.321 51.3944 136.092 51.6373L131.225 56.7653L129.46 55.735L132.111 45.6002L132.123 45.5676Z M145.524 54.0229L151.363 59.2324L150.435 60.273L145.811 56.1534L143.928 58.2741L148.069 61.9615L147.141 63.0021L143 59.3147L140.966 61.5962L145.654 65.7759L144.726 66.8165L138.818 61.5578L145.527 54.0303L145.524 54.0229Z M153.355 61.303L156.641 65.4371C157.289 66.2608 157.588 67.0502 157.511 67.8085C157.434 68.5668 157.041 69.2295 156.332 69.7968C155.788 70.2329 155.226 70.4785 154.648 70.5337C154.069 70.5888 153.505 70.4653 152.965 70.1413L151.003 74.5552L149.898 73.1611L151.772 69.0228L149.638 66.3424L146.47 68.859L145.456 67.5841L153.359 61.3104L153.355 61.303ZM152.928 68.2546C153.254 68.661 153.621 68.8857 154.044 68.94C154.463 68.9868 154.883 68.8437 155.297 68.514C155.692 68.2022 155.905 67.8493 155.94 67.4628C155.976 67.0762 155.825 66.6595 155.488 66.2309L153.284 63.4575L150.726 65.4885L152.931 68.262L152.928 68.2546Z M162.367 74.2466L165.533 80.7203L164.279 81.3363L161.829 76.3311L159.151 77.6428L161.364 82.1634L160.11 82.7793L157.9 78.2661L154.031 80.1551L153.314 78.6865L162.378 74.2505L162.367 74.2466Z M166.468 83.2505L167.921 88.3261C168.207 89.3382 168.175 90.1744 167.815 90.8489C167.455 91.5234 166.84 91.9834 165.964 92.2322C165.295 92.4203 164.68 92.4381 164.122 92.2671C163.563 92.0962 163.1 91.7632 162.718 91.2567L159.215 94.5801L158.727 92.8686L162.045 89.7673L161.103 86.4731L157.213 87.5868L156.765 86.0189L166.468 83.2505ZM163.404 89.5084C163.549 90.009 163.803 90.3589 164.171 90.5653C164.539 90.7717 164.976 90.8008 165.488 90.6599C165.966 90.5255 166.301 90.278 166.489 89.9281C166.677 89.5782 166.688 89.1399 166.54 88.6137L165.564 85.209L162.428 86.1038L163.404 89.5084Z M160.569 96.1382C161.364 95.1783 162.616 94.6172 164.327 94.4547C166.049 94.2962 167.379 94.6104 168.338 95.4052C169.298 96.2001 169.846 97.405 170 99.0022C170.151 100.61 169.834 101.896 169.039 102.856C168.244 103.816 166.991 104.377 165.273 104.543C163.555 104.709 162.222 104.387 161.262 103.593C160.31 102.794 159.754 101.593 159.601 99.9773C159.454 98.3765 159.774 97.098 160.558 96.1342L160.569 96.1382ZM165.018 102.885L165.19 102.867C167.685 102.625 168.834 101.382 168.619 99.1363C168.408 96.8981 167.051 95.8924 164.557 96.116L164.384 96.1336C161.904 96.3685 160.77 97.605 160.985 99.8506C161.196 102.107 162.546 103.116 165.018 102.885Z M170.278 106.859L170.016 109.301L163.359 110.73C162.948 110.815 162.35 110.907 161.572 111.001L161.564 111.059C162.365 111.324 162.93 111.528 163.255 111.682L169.465 114.452L169.212 116.854L159.185 115.795L159.353 114.173L165.903 114.861L167.699 115.11L167.712 115.004C167.284 114.862 166.944 114.733 166.698 114.632L159.643 111.446L159.791 110.032L167.356 108.421C167.51 108.384 167.763 108.347 168.126 108.293L168.423 108.253L168.433 108.177L166.631 108.03L160.08 107.342L160.242 105.804L170.278 106.859Z M167.806 123.507L167.153 125.096L160.121 124.209C159.87 124.174 159.364 124.096 158.611 123.953L158.58 124.022L159.861 124.846L165.602 128.865L164.777 130.877L157.851 129.734C157.559 129.69 157.061 129.59 156.349 129.438L156.318 129.506C156.943 129.935 157.371 130.23 157.579 130.385L163.211 134.672L162.612 136.127L154.362 129.666L155.136 127.778L162.114 128.896C162.504 128.957 163.024 129.065 163.689 129.213L163.72 129.144C163.093 128.771 162.643 128.486 162.371 128.289L156.61 124.189L157.383 122.3L167.791 123.514L167.806 123.507Z M161.269 137.822L160.43 139.227L151.772 134.05L152.611 132.645L161.269 137.822Z M156.254 142.885L158.275 140.212L159.398 141.065L154.362 147.717L153.24 146.863L155.261 144.19L148.344 138.954L149.33 137.652L156.247 142.888L156.254 142.885Z M152.866 149.394L151.68 150.52L148.781 147.459L145.046 150.999L147.949 154.068L146.763 155.193L139.824 147.874L141.01 146.748L144.073 149.985L147.808 146.444L144.745 143.207L145.931 142.082L152.87 149.401L152.866 149.394Z M144.352 156.921L143.038 157.89L137.058 149.768L138.372 148.799L144.352 156.921Z M140.666 159.662L139.358 160.393L131.886 157.07C131.716 156.996 131.488 156.877 131.203 156.731L131.151 156.792L131.522 157.43L134.673 163.026L133.332 163.782L128.392 154.992L129.678 154.27L137.196 157.654C137.308 157.7 137.446 157.762 137.59 157.839C137.734 157.916 137.839 157.966 137.9 158L137.96 157.954L137.585 157.309L134.395 151.631L135.737 150.875L140.68 159.673L140.666 159.662Z M100.165 170.033L95.3281 169.38C94.2864 169.237 93.5358 168.85 93.0689 168.22C92.602 167.591 92.4318 166.787 92.5613 165.832C92.6874 164.871 93.078 164.146 93.7264 163.643C94.3708 163.151 95.2049 162.966 96.2284 163.109L99.4009 163.541L99.9055 159.83L101.523 160.045L100.169 170.04L100.165 170.033ZM96.0954 164.498C95.5854 164.43 95.1553 164.533 94.8159 164.81C94.4765 165.086 94.2726 165.498 94.1969 166.048C94.1212 166.598 94.2052 167.046 94.4454 167.385C94.6855 167.723 95.0789 167.926 95.6215 168.006L98.7431 168.426L99.2245 164.915L96.1028 164.494L96.0954 164.498Z M91.4756 159.599C92.0477 160.703 92.0722 162.081 91.542 163.72C91.0119 165.359 90.1952 166.464 89.0885 167.029C87.9818 167.594 86.6617 167.627 85.1315 167.136C83.5905 166.641 82.5359 165.837 81.9637 164.733C81.3916 163.63 81.3706 162.259 81.8973 160.613C82.424 158.967 83.2441 157.869 84.3508 157.304C85.4575 156.739 86.7851 156.702 88.3261 157.197C89.8562 157.688 90.9074 158.485 91.483 159.596L91.4756 159.599ZM83.5206 161.033L83.4652 161.203C82.7009 163.593 83.3974 165.134 85.5475 165.83C87.6832 166.515 89.144 165.667 89.9192 163.281L89.9746 163.111C90.7385 160.74 90.0488 159.213 87.8988 158.517C85.7414 157.824 84.2844 158.662 83.5206 161.033Z M78.5627 164.832L77.0673 163.973L78.8664 157.118C78.931 156.871 79.0818 156.385 79.3229 155.649L79.2616 155.614L78.2719 156.774L73.5395 161.938L71.6512 160.857L73.6954 154.139C73.7792 153.856 73.9409 153.374 74.188 152.69L74.1268 152.655C73.6193 153.227 73.2702 153.599 73.0865 153.784L68.0983 158.807L66.7362 158.021L74.2228 150.688L75.9921 151.707L73.9647 158.48C73.8531 158.858 73.6761 159.365 73.4486 159.995L73.5099 160.03C73.9626 159.456 74.3052 159.052 74.5341 158.809L79.3542 153.639L81.1235 154.659L78.5558 164.818L78.5627 164.832Z M65.0678 156.485L59.183 151.333L60.1044 150.277L64.7622 154.354L66.6312 152.222L62.46 148.567L63.3814 147.511L67.5526 151.166L69.5683 148.866L64.8462 144.73L65.7676 143.674L71.7167 148.886L65.0717 156.474L65.0678 156.485Z M57.1868 149.273L53.8675 145.164C53.2042 144.347 52.9166 143.561 52.9755 142.803C53.0418 142.04 53.4346 141.378 54.1395 140.803C54.6839 140.367 55.242 140.114 55.8173 140.051C56.3926 139.989 56.956 140.112 57.5002 140.425L59.4185 135.996L60.5392 137.383L58.7006 141.54L60.8533 144.203L64.0006 141.66L65.0292 142.928L57.1868 149.273ZM57.5594 142.32C57.2332 141.914 56.8586 141.692 56.4395 141.645C56.0203 141.599 55.6002 141.742 55.1898 142.079C54.8056 142.395 54.5922 142.747 54.5532 143.145C54.5142 143.542 54.6686 143.948 55.0235 144.377L57.2544 147.129L59.7938 145.08L57.5629 142.327L57.5594 142.32Z M48.0209 136.384L44.8549 129.91L46.109 129.294L48.5584 134.299L51.2368 132.987L49.0239 128.467L50.2781 127.851L52.4909 132.371L56.3568 130.475L57.0734 131.944L48.01 136.38L48.0209 136.384Z M43.8888 127.448L42.3947 122.382C42.0943 121.377 42.1224 120.534 42.4826 119.859C42.8319 119.181 43.4537 118.717 44.3227 118.454C44.989 118.258 45.6034 118.24 46.1659 118.401C46.7285 118.561 47.1917 118.894 47.5813 119.397L51.0519 116.043L51.5544 117.748L48.2609 120.883L49.236 124.17L53.1126 123.027L53.5748 124.588L43.8962 127.445L43.8888 127.448ZM46.8945 121.163C46.7497 120.663 46.4952 120.313 46.1127 120.113C45.7376 119.91 45.2998 119.881 44.7953 120.037C44.3203 120.179 43.9818 120.419 43.805 120.773C43.6281 121.126 43.6064 121.561 43.7651 122.091L44.7666 125.493L47.8995 124.572L46.898 121.171L46.8945 121.163Z M49.6789 114.503C48.895 115.467 47.6491 116.043 45.9271 116.22C44.205 116.397 42.8678 116.086 41.9114 115.298C40.9442 114.507 40.3851 113.317 40.2274 111.712C40.0662 110.1 40.3756 108.817 41.156 107.846C41.94 106.882 43.1858 106.307 44.9079 106.13C46.6225 105.956 47.9637 106.256 48.9236 107.051C49.8834 107.846 50.4533 109.04 50.611 110.645C50.7762 112.246 50.4668 113.529 49.6828 114.493L49.6789 114.503ZM45.1739 107.792L45.0017 107.81C42.5099 108.077 41.3717 109.324 41.605 111.57C41.8314 113.802 43.192 114.797 45.6942 114.551L45.8664 114.534C48.3468 114.28 49.4667 113.033 49.2334 110.787C49.004 108.53 47.6508 107.531 45.1704 107.785L45.1739 107.792Z M39.8798 103.879L40.1119 101.433L46.7525 99.9485C47.1639 99.8636 47.7584 99.765 48.5395 99.66L48.5482 99.6018C47.7431 99.348 47.178 99.144 46.8455 98.9933L40.6082 96.2811L40.8429 93.8785L50.8839 94.8499L50.7268 96.476L44.1676 95.8463L42.3715 95.6156L42.3653 95.7178C42.7931 95.8599 43.13 95.9815 43.376 96.0826L50.4583 99.2103L50.321 100.629L42.7692 102.306C42.6149 102.343 42.3652 102.388 42.0021 102.441L41.6977 102.484L41.6885 102.561L43.4907 102.689L50.0499 103.319L49.906 104.858L39.865 103.886L39.8798 103.879Z M42.2137 87.2056L42.8525 85.606L49.8929 86.4339C50.1481 86.4584 50.6503 86.5476 51.4072 86.6795L51.4381 86.6109L50.15 85.7897L44.3712 81.8243L45.1812 79.8013L52.1166 80.8861C52.4079 80.9299 52.9027 81.0225 53.6152 81.1753L53.6461 81.1066C53.0134 80.6817 52.5893 80.3934 52.3811 80.2385L46.7112 76.0053L47.299 74.547L55.6056 80.9357L54.8461 82.8356L47.8589 81.7751C47.4694 81.7144 46.9455 81.6174 46.2838 81.4768L46.2529 81.5455C46.887 81.9156 47.3368 82.2008 47.6062 82.3902L53.3976 86.4399L52.638 88.3399L42.2206 87.2203L42.2137 87.2056Z M48.6206 72.8434L49.4484 71.4349L58.1523 76.536L57.3244 77.9445L48.6206 72.8434Z M53.5852 67.7327L51.5818 70.4242L50.4476 69.5849L55.4222 62.899L56.5563 63.7383L54.5529 66.4299L61.5152 71.6086L60.5401 72.9148L53.5778 67.7361L53.5852 67.7327Z M56.9335 61.1782L58.1089 60.0487L61.0344 63.0885L64.737 59.5178L61.8115 56.4781L62.9869 55.3485L69.9891 62.6114L68.8137 63.7409L65.7205 60.5362L62.018 64.1068L65.1111 67.3115L63.9357 68.441L56.9335 61.1782Z M65.3952 53.5776L66.7022 52.5939L72.7489 60.6664L71.4418 61.6501L65.3952 53.5776Z M69.0491 50.8062L70.3503 50.0598L77.8495 53.3258C78.0194 53.3994 78.2432 53.5109 78.5318 53.6642L78.5845 53.6034L78.2054 52.9691L75.01 47.3936L76.3481 46.6299L81.3619 55.3859L80.0903 56.1184L72.5485 52.8003C72.429 52.7571 72.299 52.6918 72.1547 52.6151C72.0104 52.5385 71.9057 52.4884 71.8444 52.454L71.7883 52.5074L72.1708 53.1491L75.4119 58.8024L74.0737 59.5661L69.0599 50.8101L69.0491 50.8062Z" fill="currentColor"/>
</symbol>

<symbol id="quotations-marks"  viewBox="0 0 100 101" fill="none" >
  <path d="M0 100.713C0 94.529 0 88.3448 0 82.1607C0 75.9766 0 69.7924 0 63.6083C0 45.3504 2.20862 31.0679 6.62586 20.7611C11.3376 10.1597 19.8776 3.23932 32.2459 0L39.7552 11.0431C31.5097 14.5769 26.0617 19.8776 23.4114 26.9452C20.761 33.7183 19.4359 43.7307 19.4359 56.9824H37.5466V100.713H0ZM59.6328 100.713C59.6328 94.529 59.6328 88.3448 59.6328 82.1607C59.6328 75.9766 59.6328 69.7924 59.6328 63.6083C59.6328 45.3504 61.8414 31.0679 66.2586 20.7611C70.9704 10.1597 79.5103 3.23932 91.8786 0L99.3879 11.0431C91.1424 14.5769 85.6945 19.8776 83.0441 26.9452C80.3938 33.7183 79.0686 43.7307 79.0686 56.9824H97.1793V100.713H59.6328Z" fill="currentColor" />
</symbol>

</svg>