<svg width="123" height="58" viewBox="0 0 123 58" fill="none" xmlns="http://www.w3.org/2000/svg">
<path d="M15.1216 28.8525C15.23 29.1296 15.3022 29.4006 15.3384 29.6655C15.3866 29.9185 15.4106 30.1473 15.4106 30.3521C15.4106 30.7013 15.3444 30.9784 15.2119 31.1831C15.0794 31.3879 14.8687 31.5505 14.5796 31.6709C14.3026 31.7913 13.9352 31.8696 13.4775 31.9058C13.0319 31.9419 12.4899 31.96 11.8516 31.96C11.2614 31.96 10.6712 31.9479 10.0811 31.9238C9.50293 31.8997 8.90674 31.8696 8.29248 31.8335C7.67822 31.7974 7.06999 31.7673 6.46777 31.7432C5.8776 31.707 5.27539 31.689 4.66113 31.689C3.86621 31.689 3.08333 31.7311 2.3125 31.8154C1.54167 31.8877 0.770833 32.0322 0 32.249C0 31.5143 0.126465 30.9302 0.379395 30.4966C0.644368 30.063 1.01172 29.7318 1.48145 29.5029C1.95117 29.2741 2.51725 29.1235 3.17969 29.0513C3.85417 28.979 4.60091 28.9429 5.41992 28.9429C6.25098 28.9429 7.1543 28.967 8.12988 29.0151C9.11751 29.0633 10.1774 29.0874 11.3096 29.0874C11.9961 29.0874 12.6646 29.0754 13.3149 29.0513C13.9774 29.0151 14.5796 28.9489 15.1216 28.8525ZM23.5405 36.2236C24.8413 35.766 26.0939 35.2179 27.2983 34.5796C28.5148 33.9292 29.5928 33.1704 30.5322 32.3032C31.4717 31.436 32.2184 30.4484 32.7725 29.3403C33.3385 28.2323 33.6216 26.9857 33.6216 25.6006C33.6216 24.6973 33.453 23.8843 33.1157 23.1616C32.7905 22.439 32.3449 21.8307 31.7788 21.3369C31.2127 20.8311 30.5503 20.4456 29.7915 20.1807C29.0327 19.9157 28.2197 19.7832 27.3525 19.7832C26.4613 19.7832 25.7025 19.8856 25.0762 20.0903C24.4619 20.283 23.9621 20.548 23.5767 20.8853C23.1912 21.2104 22.9082 21.5959 22.7275 22.0415C22.5589 22.4751 22.4746 22.9328 22.4746 23.4146C22.4746 24.1131 22.6071 24.7876 22.8721 25.438C23.137 26.0884 23.5586 26.6484 24.1367 27.1182L24.0645 27.353C23.3418 27.7023 22.6432 27.877 21.9688 27.877C21.5111 27.877 21.0835 27.8107 20.686 27.6782C20.3006 27.5457 19.9634 27.347 19.6743 27.082C19.3853 26.8171 19.1564 26.4919 18.9878 26.1064C18.8312 25.709 18.7529 25.2573 18.7529 24.7515C18.7529 24.0168 18.9215 23.3363 19.2588 22.71C19.6081 22.0716 20.0718 21.4875 20.6499 20.9575C21.2401 20.4276 21.9206 19.9578 22.6914 19.5483C23.4622 19.1268 24.2632 18.7715 25.0942 18.4824C25.9373 18.1934 26.7865 17.9766 27.6416 17.832C28.5088 17.6755 29.3278 17.5972 30.0986 17.5972C31.1585 17.5972 32.1763 17.7417 33.1519 18.0308C34.1274 18.3078 34.9886 18.7293 35.7354 19.2954C36.4821 19.8494 37.0723 20.542 37.5059 21.373C37.9515 22.1921 38.1743 23.1436 38.1743 24.2275C38.1743 25.179 38.0298 26.0824 37.7407 26.9375C37.4637 27.7806 37.0843 28.5755 36.6025 29.3223C36.1208 30.057 35.5547 30.7435 34.9043 31.3818C34.2539 32.0202 33.5614 32.6104 32.8267 33.1523C32.092 33.6823 31.3271 34.1701 30.5322 34.6157C29.7493 35.0493 28.9845 35.4347 28.2378 35.772L28.2739 35.8804C28.3341 35.8683 28.3944 35.8623 28.4546 35.8623C28.5269 35.8623 28.5931 35.8623 28.6533 35.8623H29.0688C30.4299 35.8623 31.7427 36.0671 33.0073 36.4766C34.272 36.874 35.3861 37.4521 36.3496 38.2109C37.3252 38.9697 38.1021 39.9032 38.6802 41.0112C39.2703 42.1073 39.5654 43.3538 39.5654 44.751C39.5654 46.0397 39.3607 47.2502 38.9512 48.3823C38.5537 49.5145 37.9997 50.5503 37.2891 51.4897C36.5785 52.4292 35.7414 53.2663 34.7778 54.001C33.8143 54.7477 32.7725 55.374 31.6523 55.8799C30.5322 56.3857 29.3579 56.7712 28.1294 57.0361C26.9129 57.3132 25.6904 57.4517 24.4619 57.4517C23.944 57.4517 23.3719 57.4155 22.7456 57.3433C22.1193 57.283 21.493 57.1746 20.8667 57.0181C20.2524 56.8615 19.6502 56.6567 19.0601 56.4038C18.4819 56.1509 17.964 55.8377 17.5063 55.4644C17.0607 55.103 16.7054 54.6755 16.4404 54.1816C16.1634 53.6999 16.0249 53.1398 16.0249 52.5015C16.0249 52.1642 16.0972 51.833 16.2417 51.5078C16.3862 51.1826 16.585 50.8875 16.8379 50.6226C17.0908 50.3576 17.3919 50.1408 17.7412 49.9722C18.0905 49.8156 18.4699 49.7373 18.8794 49.7373C19.2769 50.6527 19.7526 51.4355 20.3066 52.0859C20.8727 52.7484 21.487 53.2904 22.1494 53.7119C22.8118 54.1455 23.5104 54.4647 24.2451 54.6694C24.9798 54.8742 25.7205 54.9766 26.4673 54.9766C27.5151 54.9766 28.5389 54.7778 29.5386 54.3804C30.5503 53.9829 31.4476 53.4108 32.2305 52.6641C33.0133 51.9173 33.6396 51.008 34.1094 49.936C34.5911 48.8641 34.832 47.6536 34.832 46.3047C34.832 44.8835 34.5791 43.6248 34.0732 42.5288C33.5674 41.4207 32.8869 40.4933 32.0317 39.7466C31.1886 38.9878 30.201 38.4157 29.0688 38.0303C27.9487 37.6328 26.7684 37.4341 25.5278 37.4341H24.9678C24.7389 37.4341 24.5342 37.4401 24.3535 37.4521C24.1849 37.4642 23.9741 37.4823 23.7212 37.5063L23.5405 36.2236ZM56.7646 17.6333C58.4388 17.6333 59.9865 17.9103 61.4077 18.4644C62.841 19.0184 64.0695 19.8374 65.0933 20.9214C66.1291 22.0054 66.936 23.3423 67.5142 24.9321C68.1043 26.5099 68.3994 28.3286 68.3994 30.3882C68.3994 31.8937 68.2428 33.3089 67.9297 34.6338C67.6165 35.9466 67.1769 37.1571 66.6108 38.2651C66.0568 39.3612 65.3823 40.3428 64.5874 41.21C63.7925 42.0771 62.9072 42.8118 61.9316 43.4141C60.9681 44.0163 59.9323 44.474 58.8242 44.7871C57.7161 45.1003 56.5599 45.2568 55.3555 45.2568C53.7054 45.2568 52.1637 44.9798 50.7305 44.4258C49.2972 43.8838 48.0506 43.0768 46.9907 42.0049C45.9429 40.9209 45.1178 39.578 44.5156 37.9761C43.9134 36.3742 43.6123 34.5254 43.6123 32.4297C43.6123 30.9482 43.7689 29.5571 44.082 28.2563C44.3952 26.9435 44.8348 25.7391 45.4009 24.6431C45.979 23.547 46.6655 22.5654 47.4604 21.6982C48.2674 20.8311 49.1587 20.0964 50.1343 19.4941C51.1099 18.8919 52.1577 18.4342 53.2778 18.1211C54.3979 17.7959 55.5602 17.6333 56.7646 17.6333ZM56.6021 42.8721C57.7583 42.8721 58.7881 42.6131 59.6914 42.0952C60.6068 41.5653 61.3776 40.8366 62.0039 39.9092C62.6423 38.9697 63.124 37.8556 63.4492 36.5669C63.7865 35.2661 63.9551 33.8389 63.9551 32.2852C63.9551 31.1891 63.8587 30.1292 63.666 29.1055C63.4854 28.0697 63.2204 27.1001 62.8711 26.1968C62.5218 25.2814 62.0942 24.4504 61.5884 23.7036C61.0946 22.9569 60.5285 22.3125 59.8901 21.7705C59.2518 21.2285 58.5532 20.807 57.7944 20.5059C57.0356 20.2048 56.2227 20.0542 55.3555 20.0542C54.3197 20.0542 53.3501 20.2951 52.4468 20.7769C51.5555 21.2466 50.7786 21.9391 50.1162 22.8545C49.4658 23.7578 48.9539 24.8659 48.5806 26.1787C48.2072 27.4795 48.0205 28.9609 48.0205 30.623C48.0205 32.2249 48.2192 33.7666 48.6167 35.248C49.0142 36.7174 49.5863 38.0182 50.333 39.1504C51.0798 40.2826 51.9771 41.1859 53.0249 41.8604C54.0848 42.5348 55.2772 42.8721 56.6021 42.8721ZM82.4189 25.6187C81.07 25.6187 79.8114 25.4139 78.6431 25.0044C77.4748 24.5949 76.457 23.9626 75.5898 23.1074C74.7347 22.2523 74.0602 21.1623 73.5664 19.8374C73.0726 18.5005 72.8257 16.9106 72.8257 15.0679C72.8257 13.2733 73.0485 11.575 73.4941 9.97314C73.9398 8.37126 74.6022 6.9681 75.4814 5.76367C76.3607 4.55924 77.4567 3.60775 78.7695 2.90918C80.0824 2.19857 81.5999 1.84326 83.3223 1.84326C84.6833 1.84326 85.9359 2.04801 87.0801 2.45752C88.2243 2.85498 89.2059 3.4873 90.0249 4.35449C90.856 5.20964 91.5003 6.29964 91.958 7.62451C92.4277 8.94938 92.6626 10.5332 92.6626 12.376C92.6626 14.1706 92.4578 15.8748 92.0483 17.4888C91.6388 19.0907 91.0125 20.4938 90.1694 21.6982C89.3263 22.9027 88.2604 23.8602 86.9717 24.5708C85.6829 25.2694 84.1654 25.6187 82.4189 25.6187ZM82.6538 23.6313C83.7017 23.6313 84.605 23.3784 85.3638 22.8726C86.1346 22.3667 86.7729 21.6561 87.2788 20.7407C87.7847 19.8254 88.158 18.7354 88.3989 17.4707C88.6519 16.2061 88.7783 14.8149 88.7783 13.2974C88.7783 11.5509 88.6157 10.0755 88.2905 8.87109C87.9774 7.66667 87.5438 6.69108 86.9897 5.94434C86.4478 5.18555 85.8154 4.63753 85.0928 4.30029C84.3701 3.96305 83.6053 3.79443 82.7983 3.79443C81.7625 3.79443 80.8652 4.04736 80.1064 4.55322C79.3477 5.05908 78.7153 5.76969 78.2095 6.68506C77.7157 7.58838 77.3423 8.67839 77.0894 9.95508C76.8485 11.2197 76.728 12.6108 76.728 14.1284C76.728 15.8748 76.8846 17.3503 77.1978 18.5547C77.5229 19.7591 77.9565 20.7407 78.4985 21.4995C79.0405 22.2463 79.6668 22.7882 80.3774 23.1255C81.1001 23.4627 81.8589 23.6313 82.6538 23.6313ZM83.6113 47.0635C83.0693 46.8708 82.6839 46.6419 82.4551 46.377C82.2262 46.124 82.1118 45.7747 82.1118 45.3291C82.1118 44.8835 82.2624 44.3836 82.5635 43.8296C83.1536 42.7215 84.2075 40.9751 85.7251 38.5903C87.2427 36.1935 89.1999 33.2246 91.5967 29.6836C94.0055 26.1426 96.848 22.0596 100.124 17.4346C103.4 12.7975 107.092 7.67871 111.199 2.07812C111.524 1.64453 111.801 1.29525 112.03 1.03027C112.271 0.753255 112.487 0.54248 112.68 0.397949C112.873 0.241374 113.048 0.138997 113.204 0.0908203C113.361 0.030599 113.523 0.000488281 113.692 0.000488281C114.378 0.000488281 114.914 0.397949 115.3 1.19287C112.506 4.83024 109.796 8.46159 107.17 12.0869C104.544 15.7122 101.937 19.4038 99.3472 23.1616C96.7697 26.9074 94.1802 30.7555 91.5786 34.7061C88.9891 38.6566 86.3333 42.7757 83.6113 47.0635ZM111.994 45.1665C110.645 45.1665 109.386 44.9618 108.218 44.5522C107.049 44.1427 106.032 43.5104 105.165 42.6553C104.309 41.8001 103.635 40.7101 103.141 39.3853C102.647 38.0483 102.4 36.4585 102.4 34.6157C102.4 32.8211 102.623 31.1229 103.069 29.521C103.514 27.9191 104.177 26.516 105.056 25.3115C105.935 24.1071 107.031 23.1556 108.344 22.457C109.657 21.7464 111.175 21.3911 112.897 21.3911C114.258 21.3911 115.511 21.5959 116.655 22.0054C117.799 22.4028 118.781 23.0352 119.6 23.9023C120.431 24.7575 121.075 25.8475 121.533 27.1724C122.002 28.4972 122.237 30.0811 122.237 31.9238C122.237 33.7184 122.033 35.4227 121.623 37.0366C121.214 38.6385 120.587 40.0417 119.744 41.2461C118.901 42.4505 117.835 43.408 116.546 44.1187C115.258 44.8172 113.74 45.1665 111.994 45.1665ZM112.229 43.1792C113.276 43.1792 114.18 42.9263 114.938 42.4204C115.709 41.9146 116.348 41.2039 116.854 40.2886C117.359 39.3732 117.733 38.2832 117.974 37.0186C118.227 35.7539 118.353 34.3628 118.353 32.8452C118.353 31.0988 118.19 29.6234 117.865 28.4189C117.552 27.2145 117.118 26.2389 116.564 25.4922C116.022 24.7334 115.39 24.1854 114.667 23.8481C113.945 23.5109 113.18 23.3423 112.373 23.3423C111.337 23.3423 110.44 23.5952 109.681 24.1011C108.922 24.6069 108.29 25.3175 107.784 26.2329C107.29 27.1362 106.917 28.2262 106.664 29.5029C106.423 30.7676 106.303 32.1587 106.303 33.6763C106.303 35.4227 106.459 36.8981 106.772 38.1025C107.098 39.307 107.531 40.2886 108.073 41.0474C108.615 41.7941 109.242 42.3361 109.952 42.6733C110.675 43.0106 111.434 43.1792 112.229 43.1792Z" fill="#FFA55C"/>
</svg>
