<svg width="152" height="74" viewBox="0 0 152 74" fill="none" xmlns="http://www.w3.org/2000/svg">
<path d="M24.5509 34.7388C24.6713 35.0466 24.7516 35.3477 24.7918 35.6421C24.8453 35.9232 24.8721 36.1774 24.8721 36.4049C24.8721 36.793 24.7985 37.1008 24.6513 37.3283C24.504 37.5558 24.2699 37.7365 23.9487 37.8703C23.6409 38.0042 23.2327 38.0911 22.7242 38.1313C22.229 38.1714 21.6268 38.1915 20.9175 38.1915C20.2618 38.1915 19.606 38.1781 18.9503 38.1514C18.3079 38.1246 17.6455 38.0911 16.963 38.051C16.2805 38.0109 15.6047 37.9774 14.9355 37.9506C14.2798 37.9105 13.6107 37.8904 12.9282 37.8904C12.0449 37.8904 11.1751 37.9372 10.3186 38.0309C9.46209 38.1112 8.60561 38.2718 7.74913 38.5127C7.74913 37.6964 7.88965 37.0473 8.17068 36.5655C8.46509 36.0838 8.87326 35.7157 9.39518 35.4615C9.9171 35.2072 10.5461 35.0399 11.2821 34.9596C12.0315 34.8793 12.8613 34.8392 13.7713 34.8392C14.6947 34.8392 15.6983 34.866 16.7823 34.9195C17.8797 34.973 19.0574 34.9998 20.3153 34.9998C21.0781 34.9998 21.8209 34.9864 22.5435 34.9596C23.2795 34.9195 23.9487 34.8459 24.5509 34.7388ZM33.9053 42.9289C35.3506 42.4204 36.7424 41.8115 38.0806 41.1022C39.4323 40.3796 40.63 39.5365 41.6738 38.5729C42.7177 37.6094 43.5474 36.512 44.163 35.2808C44.792 34.0496 45.1064 32.6645 45.1064 31.1255C45.1064 30.1219 44.9191 29.2185 44.5444 28.4156C44.183 27.6126 43.6879 26.9368 43.0589 26.3881C42.4299 25.8261 41.6939 25.3978 40.8508 25.1034C40.0077 24.809 39.1044 24.6618 38.1408 24.6618C37.1505 24.6618 36.3074 24.7755 35.6115 25.003C34.929 25.2172 34.3737 25.5116 33.9454 25.8863C33.5172 26.2476 33.2027 26.6759 33.002 27.171C32.8146 27.6528 32.7209 28.1613 32.7209 28.6966C32.7209 29.4728 32.8681 30.2222 33.1625 30.9449C33.457 31.6675 33.9253 32.2898 34.5677 32.8117L34.4874 33.0727C33.6845 33.4608 32.9083 33.6548 32.1589 33.6548C31.6503 33.6548 31.1752 33.5812 30.7336 33.434C30.3054 33.2868 29.9307 33.066 29.6095 32.7716C29.2883 32.4772 29.034 32.1158 28.8467 31.6876C28.6727 31.246 28.5857 30.7441 28.5857 30.1821C28.5857 29.3657 28.7731 28.6096 29.1478 27.9137C29.5359 27.2045 30.0511 26.5554 30.6935 25.9666C31.3492 25.3777 32.1053 24.8558 32.9618 24.4008C33.8183 23.9324 34.7082 23.5377 35.6316 23.2165C36.5684 22.8953 37.5119 22.6544 38.462 22.4938C39.4256 22.3198 40.3356 22.2329 41.1921 22.2329C42.3697 22.2329 43.5005 22.3934 44.5845 22.7146C45.6685 23.0224 46.6254 23.4908 47.4551 24.1198C48.2848 24.7354 48.9405 25.5049 49.4223 26.4283C49.9175 27.3383 50.165 28.3955 50.165 29.5999C50.165 30.6572 50.0044 31.6608 49.6833 32.611C49.3755 33.5478 48.9539 34.431 48.4186 35.2607C47.8833 36.0771 47.2543 36.8399 46.5317 37.5492C45.809 38.2584 45.0395 38.9142 44.2232 39.5164C43.4069 40.1052 42.5571 40.6472 41.6738 41.1424C40.804 41.6241 39.9542 42.0524 39.1245 42.4271L39.1646 42.5475C39.2315 42.5341 39.2984 42.5275 39.3653 42.5275C39.4456 42.5275 39.5192 42.5275 39.5862 42.5275H40.0478C41.5601 42.5275 43.0188 42.755 44.4239 43.21C45.8291 43.6516 47.067 44.2939 48.1376 45.137C49.2216 45.9801 50.0847 47.0173 50.7271 48.2485C51.3828 49.4663 51.7107 50.8514 51.7107 52.4038C51.7107 53.8357 51.4832 55.1806 51.0282 56.4386C50.5866 57.6965 49.971 58.8474 49.1814 59.8913C48.3919 60.9351 47.4618 61.8652 46.3912 62.6815C45.3206 63.5112 44.163 64.2071 42.9184 64.7692C41.6738 65.3313 40.369 65.7595 39.004 66.0539C37.6524 66.3617 36.2941 66.5156 34.929 66.5156C34.3536 66.5156 33.7179 66.4755 33.022 66.3952C32.3261 66.3283 31.6302 66.2078 30.9344 66.0339C30.2518 65.8599 29.5827 65.6324 28.927 65.3513C28.2846 65.0703 27.7092 64.7224 27.2006 64.3075C26.7055 63.906 26.3107 63.431 26.0163 62.8823C25.7085 62.347 25.5546 61.7247 25.5546 61.0154C25.5546 60.6407 25.6349 60.2727 25.7955 59.9113C25.9561 59.55 26.1769 59.2221 26.4579 58.9277C26.7389 58.6333 27.0735 58.3924 27.4616 58.2051C27.8497 58.0311 28.2712 57.9441 28.7262 57.9441C29.1679 58.9612 29.6965 59.8311 30.3121 60.5537C30.941 61.2897 31.6236 61.892 32.3596 62.3604C33.0956 62.8421 33.8718 63.1968 34.6881 63.4243C35.5045 63.6518 36.3275 63.7655 37.1572 63.7655C38.3215 63.7655 39.459 63.5447 40.5698 63.1031C41.6939 62.6615 42.6909 62.0258 43.5608 61.1961C44.4306 60.3664 45.1265 59.356 45.6484 58.1649C46.1837 56.9739 46.4514 55.6289 46.4514 54.1301C46.4514 52.551 46.1704 51.1525 45.6083 49.9347C45.0462 48.7035 44.2901 47.673 43.3399 46.8433C42.4032 46.0002 41.3058 45.3645 40.0478 44.9363C38.8033 44.4947 37.4918 44.2739 36.1134 44.2739H35.4911C35.2368 44.2739 35.0093 44.2806 34.8086 44.2939C34.6212 44.3073 34.387 44.3274 34.106 44.3542L33.9053 42.9289ZM70.821 22.273C72.6811 22.273 74.4008 22.5808 75.9799 23.1964C77.5724 23.812 78.9375 24.722 80.075 25.9264C81.2259 27.1309 82.1225 28.6163 82.7649 30.3828C83.4206 32.1359 83.7485 34.1567 83.7485 36.4451C83.7485 38.1179 83.5745 39.6904 83.2266 41.1624C82.8786 42.6211 82.3902 43.9661 81.7612 45.1973C81.1456 46.4151 80.3962 47.5058 79.5129 48.4693C78.6297 49.4328 77.6461 50.2492 76.5621 50.9183C75.4915 51.5874 74.3406 52.096 73.1094 52.4439C71.8782 52.7918 70.5935 52.9658 69.2552 52.9658C67.4218 52.9658 65.7088 52.658 64.1163 52.0424C62.5238 51.4402 61.1387 50.5436 59.961 49.3525C58.7968 48.1481 57.8801 46.656 57.2109 44.8761C56.5418 43.0962 56.2072 41.042 56.2072 38.7134C56.2072 37.0674 56.3812 35.5217 56.7292 34.0764C57.0771 32.6177 57.5656 31.2794 58.1946 30.0616C58.8369 28.8438 59.5997 27.7531 60.483 26.7896C61.3796 25.8261 62.3699 25.0097 63.4539 24.3406C64.5379 23.6715 65.7021 23.1629 66.9467 22.815C68.1913 22.4537 69.4827 22.273 70.821 22.273ZM70.6403 50.3161C71.925 50.3161 73.0692 50.0284 74.0729 49.4529C75.09 48.8641 75.9465 48.0544 76.6424 47.024C77.3516 45.9801 77.8869 44.7423 78.2483 43.3103C78.623 41.865 78.8103 40.2792 78.8103 38.5528C78.8103 37.335 78.7033 36.1574 78.4891 35.0199C78.2884 33.869 77.994 32.7917 77.6059 31.788C77.2178 30.7709 76.7427 29.8475 76.1807 29.0178C75.632 28.1881 75.003 27.4721 74.2937 26.8699C73.5845 26.2677 72.8083 25.7993 71.9652 25.4647C71.1221 25.1302 70.2187 24.9629 69.2552 24.9629C68.1043 24.9629 67.027 25.2305 66.0233 25.7658C65.033 26.2878 64.1698 27.0573 63.4338 28.0743C62.7112 29.078 62.1424 30.3092 61.7275 31.7679C61.3127 33.2132 61.1053 34.8593 61.1053 36.7061C61.1053 38.4859 61.3261 40.1989 61.7677 41.8449C62.2093 43.4776 62.845 44.9229 63.6747 46.1809C64.5044 47.4388 65.5014 48.4425 66.6657 49.1919C67.8434 49.9414 69.1682 50.3161 70.6403 50.3161ZM99.3257 31.1456C97.8269 31.1456 96.4284 30.9181 95.1303 30.4631C93.8322 30.0081 92.7014 29.3055 91.7378 28.3554C90.7877 27.4052 90.0383 26.1941 89.4896 24.722C88.9409 23.2365 88.6666 21.4701 88.6666 19.4225C88.6666 17.4285 88.9141 15.5416 89.4093 13.7617C89.9044 11.9818 90.6405 10.4228 91.6174 9.08453C92.5943 7.74628 93.8121 6.68906 95.2708 5.91287C96.7295 5.1233 98.4157 4.72852 100.329 4.72852C101.842 4.72852 103.233 4.95602 104.505 5.41102C105.776 5.85265 106.867 6.55523 107.777 7.51877C108.7 8.46893 109.416 9.68005 109.925 11.1521C110.447 12.6242 110.708 14.384 110.708 16.4315C110.708 18.4255 110.48 20.3192 110.025 22.1124C109.57 23.8923 108.874 25.4514 107.937 26.7896C107.001 28.1279 105.816 29.1918 104.384 29.9813C102.952 30.7575 101.266 31.1456 99.3257 31.1456ZM99.5867 28.9375C100.751 28.9375 101.755 28.6565 102.598 28.0944C103.454 27.5323 104.164 26.7428 104.726 25.7257C105.288 24.7086 105.703 23.4975 105.97 22.0923C106.251 20.6872 106.392 19.1415 106.392 17.4553C106.392 15.5148 106.211 13.8755 105.85 12.5372C105.502 11.199 105.02 10.115 104.404 9.28527C103.802 8.44217 103.1 7.83326 102.297 7.45855C101.494 7.08384 100.644 6.89648 99.7473 6.89648C98.5964 6.89648 97.5994 7.17752 96.7563 7.73958C95.9132 8.30165 95.2106 9.09122 94.6485 10.1083C94.0999 11.112 93.685 12.3231 93.404 13.7416C93.1363 15.1468 93.0025 16.6925 93.0025 18.3787C93.0025 20.3192 93.1765 21.9585 93.5244 23.2968C93.8857 24.635 94.3675 25.7257 94.9697 26.5688C95.5719 27.3985 96.2678 28.0007 97.0574 28.3754C97.8603 28.7501 98.7034 28.9375 99.5867 28.9375ZM100.651 54.9732C100.048 54.7591 99.6202 54.5048 99.3659 54.2104C99.1116 53.9294 98.9845 53.5413 98.9845 53.0461C98.9845 52.551 99.1518 51.9956 99.4863 51.38C100.142 50.1488 101.313 48.2083 102.999 45.5586C104.685 42.8955 106.86 39.5967 109.523 35.6622C112.2 31.7278 115.358 27.1911 118.998 22.0522C122.638 16.8999 126.74 11.2123 131.303 4.98948C131.665 4.5077 131.972 4.11961 132.227 3.8252C132.494 3.5174 132.735 3.2832 132.949 3.12261C133.163 2.94864 133.357 2.83489 133.531 2.78136C133.705 2.71445 133.886 2.68099 134.073 2.68099C134.836 2.68099 135.432 3.12261 135.86 4.00586C132.755 8.04738 129.744 12.0822 126.827 16.1104C123.909 20.1385 121.012 24.2402 118.135 28.4156C115.271 32.5775 112.394 36.8533 109.503 41.2427C106.626 45.6322 103.675 50.209 100.651 54.9732ZM132.187 52.8655C130.688 52.8655 129.289 52.6379 127.991 52.1829C126.693 51.7279 125.562 51.0254 124.599 50.0752C123.648 49.125 122.899 47.9139 122.35 46.4418C121.802 44.9564 121.527 43.1899 121.527 41.1424C121.527 39.1484 121.775 37.2614 122.27 35.4816C122.765 33.7017 123.501 32.1426 124.478 30.8044C125.455 29.4661 126.673 28.4089 128.132 27.6327C129.59 26.8431 131.277 26.4484 133.19 26.4484C134.702 26.4484 136.094 26.6759 137.366 27.1309C138.637 27.5725 139.728 28.2751 140.638 29.2386C141.561 30.1888 142.277 31.3999 142.785 32.872C143.307 34.344 143.568 36.1038 143.568 38.1514C143.568 40.1454 143.341 42.039 142.886 43.8322C142.431 45.6121 141.735 47.1712 140.798 48.5094C139.861 49.8477 138.677 50.9116 137.245 51.7012C135.813 52.4774 134.127 52.8655 132.187 52.8655ZM132.447 50.6573C133.612 50.6573 134.615 50.3763 135.459 49.8142C136.315 49.2522 137.024 48.4626 137.586 47.4455C138.148 46.4285 138.563 45.2173 138.831 43.8122C139.112 42.407 139.252 40.8613 139.252 39.1751C139.252 37.2347 139.072 35.5953 138.711 34.2571C138.363 32.9188 137.881 31.8348 137.265 31.0051C136.663 30.162 135.96 29.5531 135.157 29.1784C134.354 28.8037 133.505 28.6163 132.608 28.6163C131.457 28.6163 130.46 28.8974 129.617 29.4594C128.774 30.0215 128.071 30.8111 127.509 31.8281C126.961 32.8318 126.546 34.0429 126.265 35.4615C125.997 36.8666 125.863 38.4123 125.863 40.0985C125.863 42.039 126.037 43.6783 126.385 45.0166C126.747 46.3549 127.228 47.4455 127.831 48.2886C128.433 49.1183 129.129 49.7206 129.918 50.0953C130.721 50.47 131.564 50.6573 132.447 50.6573Z" fill="#FF9138"/>
</svg>
