<svg width="240" height="79" viewBox="0 0 240 79" fill="none" xmlns="http://www.w3.org/2000/svg">
<path d="M129.66 64.8725C126.93 62.5228 124.294 60.0142 121.754 57.3469C119.277 54.6161 116.959 51.8218 114.8 48.964C112.704 46.1062 110.767 43.2166 108.989 40.2953C107.274 37.3104 105.813 34.3891 104.607 31.5313C102.448 33.881 100.288 36.2626 98.1291 38.6758C96.0334 41.0256 94.1599 43.4071 92.5087 45.8204C90.8575 48.1702 89.5239 50.5517 88.5078 52.9649C87.4281 55.3147 86.8883 57.6645 86.8883 60.0142C86.8883 62.8085 87.3646 65.2218 88.3172 67.254C89.2063 69.2228 90.413 70.8422 91.9371 72.1123C93.4613 73.3825 95.2078 74.3033 97.1765 74.8749C99.1452 75.4465 101.177 75.7322 103.273 75.7322C107.465 75.7322 111.91 74.7479 116.61 72.7792C121.309 70.8104 125.659 68.1749 129.66 64.8725ZM117.848 8.38294C117.848 6.16019 117.34 4.57251 116.324 3.6199C115.371 2.60379 114.323 2.09574 113.18 2.09574C112.228 2.09574 111.212 2.41327 110.132 3.04834C109.116 3.68341 108.163 4.60427 107.274 5.8109C106.449 6.95403 105.75 8.35119 105.178 10.0024C104.607 11.6536 104.321 13.4635 104.321 15.4322C104.321 19.0521 104.988 22.8943 106.322 26.9588C107.909 25.3076 109.402 23.6882 110.799 22.1005C112.196 20.5128 113.403 18.9569 114.419 17.4327C115.498 15.845 116.324 14.3209 116.895 12.8602C117.531 11.336 117.848 9.8436 117.848 8.38294ZM154.523 77.9232C154.523 78.1138 154.396 78.3043 154.142 78.4948C153.888 78.6853 153.507 78.7806 152.999 78.7806C149.189 77.574 145.442 75.891 141.758 73.7318C138.075 71.509 134.487 68.937 130.994 66.0157C128.581 67.8574 126.072 69.5403 123.468 71.0645C120.865 72.5886 118.197 73.8905 115.467 74.9702C112.799 76.0498 110.1 76.8754 107.369 77.4469C104.702 78.0185 102.13 78.3043 99.6533 78.3043C97.24 78.3043 94.9537 77.955 92.7945 77.2564C90.6352 76.6213 88.7618 75.637 87.1741 74.3033C85.5864 72.9062 84.348 71.1915 83.4589 69.1593C82.5063 67.127 82.03 64.7455 82.03 62.0147C82.03 59.0934 82.6969 56.2356 84.0305 53.4412C85.3642 50.5834 87.0788 47.7891 89.1746 45.0583C91.2703 42.3275 93.5883 39.6602 96.1286 37.0564C98.7324 34.4526 101.273 31.9123 103.749 29.4356C101.908 24.482 100.987 20.0047 100.987 16.0038C100.987 13.654 101.4 11.4948 102.225 9.52606C103.114 7.55735 104.226 5.87441 105.559 4.47725C106.893 3.08009 108.354 2.00047 109.941 1.23839C111.593 0.412797 113.149 0 114.609 0C116.324 0 117.88 0.571564 119.277 1.71469C120.674 2.79431 121.373 4.60426 121.373 7.14455C121.373 8.73223 120.96 10.3834 120.134 12.0981C119.372 13.8128 118.324 15.591 116.991 17.4327C115.721 19.2109 114.196 21.0844 112.418 23.0531C110.703 24.9583 108.894 26.927 106.988 28.9592C109.084 34.7384 112.196 40.6128 116.324 46.5825C120.515 52.4886 125.596 58.0138 131.566 63.1578C134.804 60.2365 137.408 57.0294 139.377 53.5365C141.346 50.0436 142.33 46.392 142.33 42.5815C142.33 41.3114 142.14 40.0412 141.758 38.7711C141.441 37.4374 140.774 36.0403 139.758 34.5796C139.758 34.4526 139.949 34.3256 140.33 34.1986C140.711 34.0081 141.06 33.9128 141.377 33.9128C142.267 33.9128 142.965 34.2303 143.473 34.8654C144.045 35.437 144.458 36.1356 144.712 36.9611C145.029 37.7867 145.22 38.6441 145.283 39.5332C145.41 40.3588 145.474 41.0256 145.474 41.5337C145.474 45.7251 144.299 49.7896 141.949 53.727C139.663 57.601 136.678 61.1574 132.994 64.3962C139.155 69.6673 146.109 73.954 153.857 77.2564C154.301 77.5104 154.523 77.7327 154.523 77.9232Z" fill="#FFA55C"/>
<path d="M18.224 43.9071C18.224 41.9231 18.096 40.2751 17.84 38.9631C17.616 37.6511 17.296 36.9951 16.88 36.9951C16.624 36.9951 16.384 37.1871 16.16 37.5711C15.936 37.9231 15.744 38.4351 15.584 39.1071C15.456 39.7471 15.344 40.5151 15.248 41.4111C15.184 42.2751 15.152 43.2191 15.152 44.2431C15.152 46.0671 15.28 48.0351 15.536 50.1471C15.792 52.2271 16.24 54.2431 16.88 56.1951C17.328 54.1471 17.664 52.0511 17.888 49.9071C18.112 47.7311 18.224 45.7311 18.224 43.9071ZM38.336 22.1151C38.336 22.2751 38.272 22.4031 38.144 22.4991C38.016 22.5951 37.856 22.7071 37.664 22.8351C36.704 23.4111 35.92 24.2111 35.312 25.2351C34.704 26.2591 34.208 27.3791 33.824 28.5951C33.472 29.8111 33.232 31.0591 33.104 32.3391C32.976 33.5871 32.912 34.7391 32.912 35.7951C32.912 36.5311 32.944 37.4431 33.008 38.5311C33.104 39.5871 33.2 40.7551 33.296 42.0351C33.424 43.3151 33.52 44.6751 33.584 46.1151C33.68 47.5231 33.728 48.9631 33.728 50.4351C33.728 52.5151 33.6 54.5311 33.344 56.4831C33.12 58.4351 32.656 60.1791 31.952 61.7151C31.28 63.2511 30.336 64.4831 29.12 65.4111C27.904 66.3391 26.32 66.8031 24.368 66.8031C23.472 66.8031 22.624 66.6271 21.824 66.2751C21.056 65.9551 20.336 65.4911 19.664 64.8831C19.024 64.2751 18.432 63.5711 17.888 62.7711C17.376 61.9711 16.912 61.0911 16.496 60.1311C16.08 61.2511 15.584 62.2911 15.008 63.2511C14.464 64.2111 13.856 65.0431 13.184 65.7471C12.512 66.4511 11.776 66.9951 10.976 67.3791C10.176 67.7631 9.328 67.9551 8.432 67.9551C7.056 67.9551 5.888 67.6031 4.928 66.8991C4 66.1951 3.232 65.2671 2.624 64.1151C2.016 62.9951 1.536 61.7151 1.184 60.2751C0.864 58.8031 0.624 57.3151 0.464 55.8111C0.304 54.2751 0.192 52.7871 0.128 51.3471C0.096 49.8751 0.064 48.5791 0.032 47.4591C-0.032 45.4431 0 43.5391 0.128 41.7471C0.288 39.9231 0.464 38.2911 0.656 36.8511C0.848 35.3791 1.04 34.1151 1.232 33.0591C1.424 32.0031 1.552 31.2191 1.616 30.7071C1.648 30.5151 1.84 30.3871 2.192 30.3231C2.576 30.2591 2.912 30.2271 3.2 30.2271C3.424 30.2271 3.616 30.2591 3.776 30.3231C3.936 30.3551 4.016 30.4511 4.016 30.6111C4.016 30.8031 3.936 31.1391 3.776 31.6191C3.616 32.0671 3.376 32.9311 3.056 34.2111C2.928 34.7871 2.784 35.6191 2.624 36.7071C2.496 37.7631 2.368 38.9631 2.24 40.3071C2.144 41.6511 2.064 43.0911 2 44.6271C1.936 46.1311 1.904 47.6031 1.904 49.0431C1.904 50.1631 1.952 51.3951 2.048 52.7391C2.144 54.0511 2.304 55.3631 2.528 56.6751C2.752 57.9551 3.056 59.2031 3.44 60.4191C3.824 61.6351 4.288 62.7071 4.832 63.6351C5.408 64.5631 6.08 65.2991 6.848 65.8431C7.616 66.4191 8.512 66.7071 9.536 66.7071C10.304 66.7071 11.008 66.5151 11.648 66.1311C12.288 65.7471 12.88 65.2031 13.424 64.4991C13.968 63.8271 14.448 63.0271 14.864 62.0991C15.312 61.1711 15.712 60.1631 16.064 59.0751C15.328 57.0591 14.784 54.9151 14.432 52.6431C14.08 50.3711 13.904 48.2751 13.904 46.3551C13.904 44.9471 13.952 43.5551 14.048 42.1791C14.176 40.8031 14.352 39.5711 14.576 38.4831C14.8 37.3951 15.088 36.5151 15.44 35.8431C15.792 35.1711 16.208 34.8351 16.688 34.8351C17.072 34.8351 17.408 35.0751 17.696 35.5551C18.016 36.0351 18.272 36.6911 18.464 37.5231C18.688 38.3551 18.848 39.3471 18.944 40.4991C19.072 41.6191 19.136 42.8351 19.136 44.1471C19.136 46.2591 18.992 48.4831 18.704 50.8191C18.416 53.1231 17.968 55.3791 17.36 57.5871C17.776 58.7071 18.256 59.7471 18.8 60.7071C19.344 61.6351 19.952 62.4511 20.624 63.1551C21.328 63.8591 22.096 64.4031 22.928 64.7871C23.792 65.2031 24.736 65.4111 25.76 65.4111C27.168 65.4111 28.32 65.0591 29.216 64.3551C30.112 63.6831 30.816 62.7551 31.328 61.5711C31.84 60.3551 32.192 58.9631 32.384 57.3951C32.576 55.7951 32.672 54.0831 32.672 52.2591C32.672 50.6271 32.608 48.9471 32.48 47.2191C32.384 45.4911 32.272 43.7791 32.144 42.0831C32.016 40.3551 31.888 38.6911 31.76 37.0911C31.664 35.4591 31.616 33.9551 31.616 32.5791C31.616 31.5871 31.76 30.4351 32.048 29.1231C32.368 27.8111 32.784 26.5791 33.296 25.4271C33.84 24.2431 34.448 23.2511 35.12 22.4511C35.824 21.6191 36.56 21.2031 37.328 21.2031C37.552 21.2031 37.776 21.3151 38 21.5391C38.224 21.7311 38.336 21.9231 38.336 22.1151Z" fill="#FFF9F4"/>
<path d="M53.3236 53.9871C53.3236 53.5071 53.2436 53.1231 53.0836 52.8351C52.9236 52.5151 52.6676 52.3551 52.3156 52.3551C51.7716 52.3551 51.3556 52.6271 51.0676 53.1711C50.7796 53.6831 50.6516 54.3391 50.6836 55.1391C50.7796 56.8351 51.0836 58.2591 51.5956 59.4111C52.1396 58.6751 52.5556 57.8431 52.8436 56.9151C53.1636 55.9871 53.3236 55.0111 53.3236 53.9871ZM66.2836 53.9391C66.0596 54.4191 65.8196 54.9151 65.5636 55.4271C65.3076 55.9071 65.0196 56.3871 64.6996 56.8671C63.0676 59.2991 61.4196 61.1071 59.7556 62.2911C58.0916 63.4751 56.5396 64.0671 55.0996 64.0671C53.2756 64.0671 51.8836 63.2031 50.9236 61.4751C49.8036 62.5951 48.5396 63.4431 47.1316 64.0191C45.7556 64.5951 44.3956 64.8831 43.0516 64.8831C42.2516 64.8831 41.4836 64.7711 40.7476 64.5471C40.0436 64.3231 39.4356 63.9871 38.9236 63.5391C38.3796 63.0591 37.9476 62.4671 37.6276 61.7631C37.3076 61.0271 37.1476 60.1791 37.1476 59.2191C37.1476 58.0671 37.4196 56.8991 37.9636 55.7151C38.4756 54.4991 39.1956 53.4111 40.1236 52.4511C41.0836 51.4591 42.2036 50.6431 43.4836 50.0031C44.7636 49.3631 46.1556 49.0431 47.6596 49.0431C48.8756 49.0431 49.8196 49.2191 50.4916 49.5711C51.1636 49.8911 51.4996 50.1951 51.4996 50.4831C51.4996 50.6111 51.4356 50.7071 51.3076 50.7711C51.1796 50.8351 51.0676 50.8671 50.9716 50.8671C50.9396 50.8351 50.9076 50.8191 50.8756 50.8191H50.8276C50.4436 50.4671 50.0116 50.1951 49.5316 50.0031C49.0516 49.7791 48.3476 49.6671 47.4196 49.6671C46.1716 49.6671 45.0356 49.9391 44.0116 50.4831C43.0196 50.9951 42.1716 51.6831 41.4676 52.5471C40.7636 53.3791 40.2196 54.3071 39.8356 55.3311C39.4516 56.3551 39.2596 57.3631 39.2596 58.3551C39.2596 60.2751 39.7076 61.6671 40.6036 62.5311C41.4996 63.3951 42.6196 63.8271 43.9636 63.8271C45.0516 63.8271 46.1876 63.5551 47.3716 63.0111C48.5556 62.4671 49.6116 61.6991 50.5396 60.7071C50.0276 59.5551 49.7716 58.0511 49.7716 56.1951C49.7716 54.9791 49.9956 53.9231 50.4436 53.0271C50.8916 52.1311 51.5316 51.6831 52.3636 51.6831C53.5156 51.6831 54.0916 52.3551 54.0916 53.6991C54.0916 55.0431 53.8996 56.2591 53.5156 57.3471C53.1316 58.4031 52.6196 59.3631 51.9796 60.2271C52.8756 61.8911 54.1236 62.7231 55.7236 62.7231C56.9396 62.7231 58.2356 62.2111 59.6116 61.1871C61.0196 60.1631 62.3956 58.6751 63.7396 56.7231C64.0596 56.2431 64.3476 55.7471 64.6036 55.2351C64.8596 54.7231 65.1156 54.2111 65.3716 53.6991L66.2836 53.9391Z" fill="#FFF9F4"/>
<path d="M72.9508 32.4831C72.9508 30.6591 72.6467 29.2031 72.0387 28.1151C71.4627 26.9951 70.4867 26.4351 69.1107 26.4351C68.6307 26.4351 68.1827 26.5951 67.7667 26.9151C67.3827 27.2031 67.0468 27.6031 66.7588 28.1151C66.4708 28.6271 66.2467 29.2191 66.0867 29.8911C65.9267 30.5631 65.8467 31.2831 65.8467 32.0511C65.8467 34.1631 65.8628 36.0831 65.8948 37.8111C65.9268 39.5391 65.9588 41.1711 65.9908 42.7071C66.0548 44.2431 66.1187 45.7311 66.1827 47.1711C66.2467 48.6111 66.3107 50.0831 66.3747 51.5871C67.3027 50.3391 68.1668 48.9151 68.9668 47.3151C69.7668 45.6831 70.4548 44.0191 71.0308 42.3231C71.6388 40.5951 72.1028 38.8831 72.4228 37.1871C72.7748 35.4911 72.9508 33.9231 72.9508 32.4831ZM90.3268 53.9391C90.1028 54.4191 89.8628 54.9151 89.6068 55.4271C89.3828 55.9391 89.0948 56.4191 88.7428 56.8671C86.9828 59.3631 84.9828 61.3311 82.7428 62.7711C80.5028 64.1791 78.2787 64.8831 76.0707 64.8831C74.6947 64.8831 73.3828 64.5631 72.1348 63.9231C70.8868 63.3151 69.7828 62.3231 68.8228 60.9471C68.6948 60.7871 68.6308 60.6431 68.6308 60.5151C68.6308 60.2271 68.8227 60.0831 69.2067 60.0831C69.2387 60.0831 69.3507 60.1151 69.5427 60.1791C69.7987 60.1791 70.0868 60.2751 70.4068 60.4671C70.7588 60.6271 71.2548 60.7071 71.8948 60.7071C72.8868 60.7071 73.8147 60.5311 74.6787 60.1791C75.5427 59.8271 76.2787 59.3791 76.8867 58.8351C77.5267 58.2591 78.0227 57.6191 78.3747 56.9151C78.7267 56.1791 78.9027 55.4271 78.9027 54.6591C78.9027 53.6991 78.6468 52.8671 78.1348 52.1631C77.6548 51.4591 76.8227 51.1071 75.6387 51.1071C74.4227 51.1071 73.3027 51.5391 72.2787 52.4031C71.2547 53.2351 70.3268 54.2591 69.4948 55.4751C68.6948 56.6591 68.0067 57.9231 67.4307 59.2671C66.8547 60.5791 66.4228 61.7311 66.1348 62.7231C65.9748 63.2671 65.8308 63.6031 65.7028 63.7311C65.5748 63.8591 65.4308 63.9231 65.2708 63.9231C64.9188 63.9231 64.7587 63.5871 64.7907 62.9151C64.7907 62.6271 64.8068 62.2751 64.8388 61.8591C64.8708 61.4431 64.9028 60.9951 64.9348 60.5151C64.9348 60.0351 64.9507 59.5551 64.9827 59.0751C65.0147 58.5631 65.0307 58.0991 65.0307 57.6831C65.0307 56.2431 64.9988 54.5951 64.9348 52.7391C64.8708 50.8511 64.7907 48.9151 64.6947 46.9311C64.5987 44.9151 64.5188 42.9151 64.4548 40.9311C64.3908 38.9471 64.3587 37.1231 64.3587 35.4591C64.3587 34.1471 64.4548 32.8831 64.6468 31.6671C64.8388 30.4191 65.1427 29.3311 65.5587 28.4031C65.9747 27.4431 66.5028 26.6911 67.1428 26.1471C67.7828 25.5711 68.5348 25.2831 69.3988 25.2831C70.2948 25.2831 71.0467 25.4431 71.6547 25.7631C72.2947 26.0511 72.8068 26.4831 73.1908 27.0591C73.5748 27.6031 73.8468 28.2751 74.0068 29.0751C74.1988 29.8431 74.2948 30.6911 74.2948 31.6191C74.2948 33.2191 74.0707 34.9791 73.6227 36.8991C73.1747 38.7871 72.5827 40.6911 71.8467 42.6111C71.1107 44.5311 70.2627 46.3871 69.3027 48.1791C68.3747 49.9391 67.4148 51.4751 66.4228 52.7871C66.4868 53.7471 66.5188 54.7391 66.5188 55.7631C66.5508 56.7871 66.5988 57.8751 66.6628 59.0271C67.4628 57.2991 68.3427 55.8111 69.3027 54.5631C69.7187 54.0191 70.1827 53.4911 70.6947 52.9791C71.2387 52.4351 71.7987 51.9551 72.3747 51.5391C72.9827 51.1231 73.6228 50.7871 74.2948 50.5311C74.9988 50.2751 75.7348 50.1471 76.5028 50.1471C77.7188 50.1471 78.7748 50.4511 79.6708 51.0591C80.5668 51.6671 81.0147 52.6431 81.0147 53.9871C81.0147 55.2671 80.6947 56.3551 80.0547 57.2511C79.4467 58.1471 78.6787 58.8991 77.7507 59.5071C76.8227 60.0831 75.8307 60.5151 74.7747 60.8031C73.7187 61.0911 72.7588 61.2671 71.8948 61.3311C71.8308 61.3311 71.7988 61.3471 71.7988 61.3791C71.7988 61.4431 71.8467 61.5391 71.9427 61.6671C72.5827 62.4031 73.3028 62.9311 74.1028 63.2511C74.9028 63.5711 75.7347 63.7311 76.5987 63.7311C77.6547 63.7311 78.7268 63.5391 79.8148 63.1551C80.9028 62.7391 81.9428 62.2111 82.9348 61.5711C83.9268 60.8991 84.8388 60.1471 85.6708 59.3151C86.5348 58.4511 87.2388 57.5871 87.7828 56.7231C88.1028 56.2431 88.3908 55.7471 88.6468 55.2351C88.9028 54.7231 89.1587 54.2111 89.4147 53.6991L90.3268 53.9391Z" fill="#FFF9F4"/>
<path d="M97.0936 50.9631C97.0936 50.0991 96.8696 49.3951 96.4216 48.8511C96.0056 48.2751 95.3176 47.9871 94.3576 47.9871C93.8456 47.9871 93.3816 48.1471 92.9656 48.4671C92.5496 48.7871 92.1976 49.2191 91.9096 49.7631C91.6216 50.2751 91.3976 50.8831 91.2376 51.5871C91.0776 52.2911 90.9976 53.0271 90.9976 53.7951C90.9976 55.0111 91.1256 56.0991 91.3816 57.0591C91.6696 57.9871 92.0696 58.8031 92.5816 59.5071C93.2536 58.9631 93.8616 58.3391 94.4056 57.6351C94.9496 56.9311 95.4136 56.1951 95.7976 55.4271C96.2136 54.6591 96.5336 53.8911 96.7576 53.1231C96.9816 52.3551 97.0936 51.6351 97.0936 50.9631ZM109.238 53.9391C109.014 54.4191 108.774 54.9151 108.518 55.4271C108.294 55.9071 108.006 56.3871 107.654 56.8671C106.086 59.1071 104.294 60.8031 102.278 61.9551C100.294 63.0751 98.3896 63.6351 96.5656 63.6351C95.5416 63.6351 94.5816 63.4591 93.6856 63.1071C92.8216 62.7551 92.0696 62.2271 91.4296 61.5231C90.7896 60.8191 90.2776 59.9391 89.8936 58.8831C89.5096 57.8271 89.3176 56.5791 89.3176 55.1391C89.3176 54.1791 89.4616 53.2191 89.7496 52.2591C90.0376 51.2991 90.4216 50.4351 90.9016 49.6671C91.4136 48.8991 91.9896 48.2751 92.6296 47.7951C93.3016 47.3151 94.0056 47.0751 94.7416 47.0751C95.9256 47.0751 96.7896 47.4271 97.3336 48.1311C97.8776 48.8031 98.1496 49.6671 98.1496 50.7231C98.1496 52.1631 97.7016 53.7311 96.8056 55.4271C95.9416 57.0911 94.6936 58.6431 93.0616 60.0831C94.2776 61.4591 95.8456 62.1471 97.7656 62.1471C99.2056 62.1471 100.71 61.7151 102.278 60.8511C103.846 59.9551 105.318 58.5791 106.694 56.7231C107.046 56.2751 107.334 55.7951 107.558 55.2831C107.814 54.7391 108.07 54.2111 108.326 53.6991L109.238 53.9391Z" fill="#FFF9F4"/>
<path d="M150.823 41.8431C149.639 41.8431 148.503 41.9711 147.415 42.2271C146.359 42.4831 145.415 42.7871 144.583 43.1391C143.783 43.4911 143.127 43.8591 142.615 44.2431C142.135 44.6271 141.895 44.9631 141.895 45.2511C141.895 45.6351 142.343 45.8271 143.239 45.8271C144.775 45.8271 146.231 45.4591 147.607 44.7231C149.015 43.9871 150.279 43.0271 151.399 41.8431H150.823ZM164.791 49.0431C164.791 50.6111 164.343 52.3071 163.447 54.1311C162.583 55.9551 161.383 57.7631 159.847 59.5551C158.311 61.3471 156.487 63.0751 154.375 64.7391C152.263 66.4031 149.991 67.8751 147.559 69.1551C145.127 70.4351 142.567 71.4431 139.879 72.1791C137.191 72.9471 134.503 73.3311 131.815 73.3311C131.367 73.3311 130.871 73.3151 130.327 73.2831C129.815 73.2511 129.335 73.1711 128.887 73.0431C128.439 72.9471 128.055 72.7711 127.735 72.5151C127.415 72.2911 127.255 71.9711 127.255 71.5551C127.255 70.9791 127.543 70.4191 128.119 69.8751C128.695 69.3631 129.431 68.8831 130.327 68.4351C131.223 67.9871 132.199 67.5871 133.255 67.2351C134.311 66.8831 135.319 66.5791 136.279 66.3231C137.271 66.0671 138.135 65.8591 138.871 65.6991C139.607 65.5711 140.103 65.5071 140.359 65.5071C140.551 65.5071 140.695 65.5551 140.791 65.6511C140.887 65.7471 140.935 65.8431 140.935 65.9391C140.935 66.0991 140.855 66.1791 140.695 66.1791H140.071C139.239 66.1791 138.183 66.3391 136.903 66.6591C135.623 66.9791 134.375 67.3791 133.159 67.8591C131.943 68.3391 130.903 68.8671 130.039 69.4431C129.175 70.0511 128.743 70.6111 128.743 71.1231C128.743 71.4751 128.855 71.7471 129.079 71.9391C129.335 72.1631 129.639 72.3391 129.991 72.4671C130.343 72.5951 130.711 72.6751 131.095 72.7071C131.479 72.7711 131.815 72.8031 132.103 72.8031C134.375 72.8031 136.695 72.4191 139.063 71.6511C141.463 70.8831 143.783 69.8591 146.023 68.5791C148.295 67.3311 150.423 65.8751 152.407 64.2111C154.423 62.5791 156.183 60.8831 157.687 59.1231C159.191 57.3311 160.375 55.5551 161.239 53.7951C162.103 52.0031 162.535 50.3391 162.535 48.8031C162.535 46.9151 161.751 45.3471 160.183 44.0991C158.647 42.8191 156.103 42.0831 152.551 41.8911C151.111 43.2351 149.527 44.3231 147.799 45.1551C146.103 45.9871 144.375 46.4031 142.615 46.4031C141.367 46.4031 140.743 46.0991 140.743 45.4911C140.743 45.1071 140.999 44.6751 141.511 44.1951C142.055 43.6831 142.791 43.2031 143.719 42.7551C144.679 42.3071 145.815 41.9391 147.127 41.6511C148.439 41.3311 149.879 41.1711 151.447 41.1711H152.023C153.079 39.9231 153.927 38.5631 154.567 37.0911C155.207 35.5871 155.527 34.1151 155.527 32.6751C155.527 31.7151 155.351 30.8031 154.999 29.9391C154.679 29.0431 154.135 28.2751 153.367 27.6351C152.631 26.9951 151.655 26.4831 150.439 26.0991C149.255 25.7151 147.815 25.5231 146.119 25.5231C144.967 25.5231 143.367 25.6831 141.319 26.0031C139.303 26.3231 137.111 26.8191 134.743 27.4911C132.407 28.1311 130.023 28.9471 127.591 29.9391C125.159 30.9311 122.951 32.0831 120.967 33.3951C118.983 34.7071 117.367 36.1951 116.119 37.8591C114.871 39.5231 114.247 41.3631 114.247 43.3791C114.247 43.6351 114.199 43.8591 114.103 44.0511C114.007 44.2111 113.911 44.2911 113.815 44.2911C113.687 44.2911 113.591 44.1631 113.527 43.9071C113.431 43.6191 113.383 43.1551 113.383 42.5151C113.671 40.4351 114.519 38.5471 115.927 36.8511C117.335 35.1551 119.079 33.6511 121.159 32.3391C123.207 30.9951 125.463 29.8431 127.927 28.8831C130.391 27.9231 132.823 27.1391 135.223 26.5311C137.655 25.8911 139.911 25.4271 141.991 25.1391C144.103 24.8191 145.831 24.6591 147.175 24.6591C149.127 24.6591 150.775 24.8511 152.119 25.2351C153.495 25.5871 154.615 26.0831 155.479 26.7231C156.343 27.3311 156.967 28.0671 157.351 28.9311C157.735 29.7951 157.927 30.7071 157.927 31.6671C157.927 33.2351 157.495 34.8671 156.631 36.5631C155.799 38.2271 154.663 39.7791 153.223 41.2191C155.271 41.3151 157.031 41.5871 158.503 42.0351C159.975 42.4511 161.175 43.0111 162.103 43.7151C163.031 44.3871 163.703 45.1871 164.119 46.1151C164.567 47.0111 164.791 47.9871 164.791 49.0431ZM139.351 61.6671C139.351 62.1151 139.319 62.4351 139.255 62.6271C139.191 62.8191 139.015 62.9151 138.727 62.9151C138.087 62.9791 137.767 62.3391 137.767 60.9951C137.735 56.5791 137.687 52.5471 137.623 48.8991C137.591 45.2511 137.543 42.0991 137.479 39.4431C137.447 36.7551 137.415 34.6271 137.383 33.0591C137.351 31.4911 137.335 30.5951 137.335 30.3711C137.335 30.1151 137.415 29.9391 137.575 29.8431C137.735 29.7471 137.927 29.6671 138.151 29.6031C138.407 29.6031 138.599 29.6831 138.727 29.8431C138.887 30.0031 138.967 30.1951 138.967 30.4191C138.967 32.9791 138.983 35.6191 139.015 38.3391C139.047 41.0271 139.079 43.7151 139.111 46.4031C139.175 49.0911 139.223 51.7311 139.255 54.3231C139.319 56.9151 139.351 59.3631 139.351 61.6671Z" fill="#FFF9F4"/>
<path d="M183.449 53.9871C183.449 53.5071 183.369 53.1231 183.209 52.8351C183.049 52.5151 182.793 52.3551 182.441 52.3551C181.897 52.3551 181.481 52.6271 181.193 53.1711C180.905 53.6831 180.777 54.3391 180.809 55.1391C180.905 56.8351 181.209 58.2591 181.721 59.4111C182.265 58.6751 182.681 57.8431 182.969 56.9151C183.289 55.9871 183.449 55.0111 183.449 53.9871ZM196.409 53.9391C196.185 54.4191 195.945 54.9151 195.689 55.4271C195.433 55.9071 195.145 56.3871 194.825 56.8671C193.193 59.2991 191.545 61.1071 189.881 62.2911C188.217 63.4751 186.665 64.0671 185.225 64.0671C183.401 64.0671 182.009 63.2031 181.049 61.4751C179.929 62.5951 178.665 63.4431 177.257 64.0191C175.881 64.5951 174.521 64.8831 173.177 64.8831C172.377 64.8831 171.609 64.7711 170.873 64.5471C170.169 64.3231 169.561 63.9871 169.049 63.5391C168.505 63.0591 168.073 62.4671 167.753 61.7631C167.433 61.0271 167.273 60.1791 167.273 59.2191C167.273 58.0671 167.545 56.8991 168.089 55.7151C168.601 54.4991 169.321 53.4111 170.249 52.4511C171.209 51.4591 172.329 50.6431 173.609 50.0031C174.889 49.3631 176.281 49.0431 177.785 49.0431C179.001 49.0431 179.945 49.2191 180.617 49.5711C181.289 49.8911 181.625 50.1951 181.625 50.4831C181.625 50.6111 181.561 50.7071 181.433 50.7711C181.305 50.8351 181.193 50.8671 181.097 50.8671C181.065 50.8351 181.033 50.8191 181.001 50.8191H180.953C180.569 50.4671 180.137 50.1951 179.657 50.0031C179.177 49.7791 178.473 49.6671 177.545 49.6671C176.297 49.6671 175.161 49.9391 174.137 50.4831C173.145 50.9951 172.297 51.6831 171.593 52.5471C170.889 53.3791 170.345 54.3071 169.961 55.3311C169.577 56.3551 169.385 57.3631 169.385 58.3551C169.385 60.2751 169.833 61.6671 170.729 62.5311C171.625 63.3951 172.745 63.8271 174.089 63.8271C175.177 63.8271 176.313 63.5551 177.497 63.0111C178.681 62.4671 179.737 61.6991 180.665 60.7071C180.153 59.5551 179.897 58.0511 179.897 56.1951C179.897 54.9791 180.121 53.9231 180.569 53.0271C181.017 52.1311 181.657 51.6831 182.489 51.6831C183.641 51.6831 184.217 52.3551 184.217 53.6991C184.217 55.0431 184.025 56.2591 183.641 57.3471C183.257 58.4031 182.745 59.3631 182.105 60.2271C183.001 61.8911 184.249 62.7231 185.849 62.7231C187.065 62.7231 188.361 62.2111 189.737 61.1871C191.145 60.1631 192.521 58.6751 193.865 56.7231C194.185 56.2431 194.473 55.7471 194.729 55.2351C194.985 54.7231 195.241 54.2111 195.497 53.6991L196.409 53.9391Z" fill="#FFF9F4"/>
<path d="M203.076 32.4831C203.076 30.6591 202.772 29.2031 202.164 28.1151C201.588 26.9951 200.612 26.4351 199.236 26.4351C198.756 26.4351 198.308 26.5951 197.892 26.9151C197.508 27.2031 197.172 27.6031 196.884 28.1151C196.596 28.6271 196.372 29.2191 196.212 29.8911C196.052 30.5631 195.972 31.2831 195.972 32.0511C195.972 34.1631 195.988 36.0831 196.02 37.8111C196.052 39.5391 196.084 41.1711 196.116 42.7071C196.18 44.2431 196.244 45.7311 196.308 47.1711C196.372 48.6111 196.436 50.0831 196.5 51.5871C197.428 50.3391 198.292 48.9151 199.092 47.3151C199.892 45.6831 200.58 44.0191 201.156 42.3231C201.764 40.5951 202.228 38.8831 202.548 37.1871C202.9 35.4911 203.076 33.9231 203.076 32.4831ZM220.452 53.9391C220.228 54.4191 219.988 54.9151 219.732 55.4271C219.508 55.9391 219.22 56.4191 218.868 56.8671C217.108 59.3631 215.108 61.3311 212.868 62.7711C210.628 64.1791 208.404 64.8831 206.196 64.8831C204.82 64.8831 203.508 64.5631 202.26 63.9231C201.012 63.3151 199.908 62.3231 198.948 60.9471C198.82 60.7871 198.756 60.6431 198.756 60.5151C198.756 60.2271 198.948 60.0831 199.332 60.0831C199.364 60.0831 199.476 60.1151 199.668 60.1791C199.924 60.1791 200.212 60.2751 200.532 60.4671C200.884 60.6271 201.38 60.7071 202.02 60.7071C203.012 60.7071 203.94 60.5311 204.804 60.1791C205.668 59.8271 206.404 59.3791 207.012 58.8351C207.652 58.2591 208.148 57.6191 208.5 56.9151C208.852 56.1791 209.028 55.4271 209.028 54.6591C209.028 53.6991 208.772 52.8671 208.26 52.1631C207.78 51.4591 206.948 51.1071 205.764 51.1071C204.548 51.1071 203.428 51.5391 202.404 52.4031C201.38 53.2351 200.452 54.2591 199.62 55.4751C198.82 56.6591 198.132 57.9231 197.556 59.2671C196.98 60.5791 196.548 61.7311 196.26 62.7231C196.1 63.2671 195.956 63.6031 195.828 63.7311C195.7 63.8591 195.556 63.9231 195.396 63.9231C195.044 63.9231 194.884 63.5871 194.916 62.9151C194.916 62.6271 194.932 62.2751 194.964 61.8591C194.996 61.4431 195.028 60.9951 195.06 60.5151C195.06 60.0351 195.076 59.5551 195.108 59.0751C195.14 58.5631 195.156 58.0991 195.156 57.6831C195.156 56.2431 195.124 54.5951 195.06 52.7391C194.996 50.8511 194.916 48.9151 194.82 46.9311C194.724 44.9151 194.644 42.9151 194.58 40.9311C194.516 38.9471 194.484 37.1231 194.484 35.4591C194.484 34.1471 194.58 32.8831 194.772 31.6671C194.964 30.4191 195.268 29.3311 195.684 28.4031C196.1 27.4431 196.628 26.6911 197.268 26.1471C197.908 25.5711 198.66 25.2831 199.524 25.2831C200.42 25.2831 201.172 25.4431 201.78 25.7631C202.42 26.0511 202.932 26.4831 203.316 27.0591C203.7 27.6031 203.972 28.2751 204.132 29.0751C204.324 29.8431 204.42 30.6911 204.42 31.6191C204.42 33.2191 204.196 34.9791 203.748 36.8991C203.3 38.7871 202.708 40.6911 201.972 42.6111C201.236 44.5311 200.388 46.3871 199.428 48.1791C198.5 49.9391 197.54 51.4751 196.548 52.7871C196.612 53.7471 196.644 54.7391 196.644 55.7631C196.676 56.7871 196.724 57.8751 196.788 59.0271C197.588 57.2991 198.468 55.8111 199.428 54.5631C199.844 54.0191 200.308 53.4911 200.82 52.9791C201.364 52.4351 201.924 51.9551 202.5 51.5391C203.108 51.1231 203.748 50.7871 204.42 50.5311C205.124 50.2751 205.86 50.1471 206.628 50.1471C207.844 50.1471 208.9 50.4511 209.796 51.0591C210.692 51.6671 211.14 52.6431 211.14 53.9871C211.14 55.2671 210.82 56.3551 210.18 57.2511C209.572 58.1471 208.804 58.8991 207.876 59.5071C206.948 60.0831 205.956 60.5151 204.9 60.8031C203.844 61.0911 202.884 61.2671 202.02 61.3311C201.956 61.3311 201.924 61.3471 201.924 61.3791C201.924 61.4431 201.972 61.5391 202.068 61.6671C202.708 62.4031 203.428 62.9311 204.228 63.2511C205.028 63.5711 205.86 63.7311 206.724 63.7311C207.78 63.7311 208.852 63.5391 209.94 63.1551C211.028 62.7391 212.068 62.2111 213.06 61.5711C214.052 60.8991 214.964 60.1471 215.796 59.3151C216.66 58.4511 217.364 57.5871 217.908 56.7231C218.228 56.2431 218.516 55.7471 218.772 55.2351C219.028 54.7231 219.284 54.2111 219.54 53.6991L220.452 53.9391Z" fill="#FFF9F4"/>
<path d="M227.219 50.9631C227.219 50.0991 226.995 49.3951 226.547 48.8511C226.131 48.2751 225.443 47.9871 224.483 47.9871C223.971 47.9871 223.507 48.1471 223.091 48.4671C222.675 48.7871 222.323 49.2191 222.035 49.7631C221.747 50.2751 221.523 50.8831 221.363 51.5871C221.203 52.2911 221.123 53.0271 221.123 53.7951C221.123 55.0111 221.251 56.0991 221.507 57.0591C221.795 57.9871 222.195 58.8031 222.707 59.5071C223.379 58.9631 223.987 58.3391 224.531 57.6351C225.075 56.9311 225.539 56.1951 225.923 55.4271C226.339 54.6591 226.659 53.8911 226.883 53.1231C227.107 52.3551 227.219 51.6351 227.219 50.9631ZM239.363 53.9391C239.139 54.4191 238.899 54.9151 238.643 55.4271C238.419 55.9071 238.131 56.3871 237.779 56.8671C236.211 59.1071 234.419 60.8031 232.403 61.9551C230.419 63.0751 228.515 63.6351 226.691 63.6351C225.667 63.6351 224.707 63.4591 223.811 63.1071C222.947 62.7551 222.195 62.2271 221.555 61.5231C220.915 60.8191 220.403 59.9391 220.019 58.8831C219.635 57.8271 219.443 56.5791 219.443 55.1391C219.443 54.1791 219.587 53.2191 219.875 52.2591C220.163 51.2991 220.547 50.4351 221.027 49.6671C221.539 48.8991 222.115 48.2751 222.755 47.7951C223.427 47.3151 224.131 47.0751 224.867 47.0751C226.051 47.0751 226.915 47.4271 227.459 48.1311C228.003 48.8031 228.275 49.6671 228.275 50.7231C228.275 52.1631 227.827 53.7311 226.931 55.4271C226.067 57.0911 224.819 58.6431 223.187 60.0831C224.403 61.4591 225.971 62.1471 227.891 62.1471C229.331 62.1471 230.835 61.7151 232.403 60.8511C233.971 59.9551 235.443 58.5791 236.819 56.7231C237.171 56.2751 237.459 55.7951 237.683 55.2831C237.939 54.7391 238.195 54.2111 238.451 53.6991L239.363 53.9391Z" fill="#FFF9F4"/>
</svg>
