<svg xmlns="http://www.w3.org/2000/svg"> 
<symbol id="search" viewBox="0 0 24 24" fill="none" >
  <path d="M21 21L16.7 16.7M19 11C19 15.4183 15.4183 19 11 19C6.58172 19 3 15.4183 3 11C3 6.58172 6.58172 3 11 3C15.4183 3 19 6.58172 19 11Z"  stroke-linecap="round" stroke="currentColor" stroke-linejoin="round" />
</symbol>
<symbol id='cart'  viewBox="0 0 24 24" fill="none" >
  <path d="M2.0498 2.05H4.0498L6.7098 14.47C6.80738 14.9249 7.06048 15.3315 7.42552 15.6199C7.79056 15.9082 8.24471 16.0603 8.7098 16.05H18.4898C18.945 16.0493 19.3863 15.8933 19.7408 15.6078C20.0954 15.3224 20.3419 14.9245 20.4398 14.48L22.0898 7.05H5.1198M8.9998 21C8.9998 21.5523 8.55209 22 7.9998 22C7.44752 22 6.9998 21.5523 6.9998 21C6.9998 20.4477 7.44752 20 7.9998 20C8.55209 20 8.9998 20.4477 8.9998 21ZM19.9998 21C19.9998 21.5523 19.5521 22 18.9998 22C18.4475 22 17.9998 21.5523 17.9998 21C17.9998 20.4477 18.4475 20 18.9998 20C19.5521 20 19.9998 20.4477 19.9998 21Z"  stroke-linecap="round" stroke-linejoin="round"  stroke="currentColor"/>
</symbol>
<symbol id='cursor'  viewBox="0 0 14 14" fill="none" >
  <path d="M12.3135 3.42615C12.2983 3.38796 12.2796 3.35656 12.2524 3.32856C12.21 3.28867 12.1549 3.26066 12.0929 3.25897L0.283308 0.00190794C0.205234 -0.00827568 0.129706 0.0231238 0.0753929 0.0765878C0.0193831 0.132598 -0.0069246 0.203883 0.00156174 0.283655L3.93413 12.3088C3.94517 12.4098 4.00966 12.493 4.10386 12.5278C4.19806 12.5625 4.30329 12.5362 4.37373 12.4633L5.31656 7.70157L11.5404 13.9238C11.6431 14.0281 11.8052 14.0281 11.9062 13.9238L13.9243 11.9082C14.0252 11.8056 14.0252 11.6435 13.9243 11.5416L7.70037 5.31775L12.2516 3.69686C12.3229 3.62812 12.3458 3.52204 12.3135 3.42615Z" fill="white"  stroke="currentColor" />
</symbol>
<symbol id='menu-burger' viewBox="0 0 24 24" fill="none" >
  <path d="M21 12H9M21 18H7M21 6H3" stroke="#FFEA00" stroke-width="2" stroke-linecap="round" stroke-linejoin="round"  stroke="currentColor"/>
</symbol>
<symbol id='menu-cross'  viewBox="0 0 24 24" fill="none" >
  <path d="M18 6L6 18M6 6L18 18" stroke="#C9C69B" stroke-width="2" stroke-linecap="round" stroke-linejoin="round" stroke="currentColor" />
</symbol>

<symbol id='hero-details'  viewBox="0 0 13 11" fill="none" >
  <path d="M0.5 10.5L5.5 5.5L0.5 0.5M7.5 10.5L12.5 5.5L7.5 0.5" stroke="" stroke-linecap="round" stroke-linejoin="round" stroke="currentColor" />
</symbol>

<symbol id="check-mark" viewBox="0 0 29 17" fill="none">
  <path
    d="M22.0833 0.75L7.41667 15.4167L0.75 8.75M27.4167 6.08333L17.4167 16.0833L15.4167 14.0833"
    stroke="currentColor"
    stroke-width="1.5"
    stroke-linecap="round"
    stroke-linejoin="round"
  />
</symbol>


<symbol id="double-arrow" viewBox="0 0 40 40" fill="none" >
  <path d="M30 11.6667L21.6667 20L30 28.3334M18.3333 11.6667L10 20L18.3333 28.3334"  stroke-width="2" stroke-linecap="round" stroke-linejoin="round" />
</symbol>


</svg>
