<svg xmlns="http://www.w3.org/2000/svg" width="512" height="618" viewBox="0 0 512 618" role="img" aria-label="Moscow Metro logo white">
  <path fill="#fff" d="M88.8 436.7C32.6 389.4 0 319.8 0 245.7 0 110 110 0 245.7 0s245.7 110 245.7 245.7c0 68.6-28.3 134.2-78.2 180.8L256 584.1l-42.2-42.2 157.2-157.3c37.7-35.1 59.2-85.9 59.2-138.9 0-101.9-82.6-184.5-184.5-184.5S61.2 143.8 61.2 245.7c0 56.3 25.8 109.8 70 144.9 12.7 10.1 14.9 28.7 4.8 41.4-10.1 12.8-28.5 14.9-41.2 4.7z"/>
  <path fill="#fff" d="M118.7 370.7h96v-25.5h-27.2l20.9-63.4 47.6 79.6 47.6-79.6 20.9 63.4h-27.2v25.5h96v-25.5h-31.9L309.1 172.3 256 277.8l-53.1-105.5-52.3 172.9h-31.9z"/>
</svg>
